<svg xmlns="http://www.w3.org/2000/svg" xmlns:xlink="http://www.w3.org/1999/xlink" width="1260.067" height="326" xmlns:v="https://vecta.io/nano"><g transform="matrix(.133333 0 0 -.133333 0 326)"><path d="M160.461 191.059H3109.91V2193.9H160.461V191.059" fill="#fff"/><path d="M217.18 248.281H3053.2V2138.97H217.18V248.281" fill="#264ca4"/><path d="M1574.76 1727.02l59.84 43.67 59.85-43.67-22.78 70.63 60.79 43.67h-74.93l-22.93 71.48-22.93-71.56-74.88.08 60.74-43.67-22.77-70.63m-309.69-83.2l59.84 43.67 59.81-43.67-22.74 70.63 60.75 43.68h-74.93l-22.92 71.55-22.93-71.64-74.89.09 60.74-43.68-22.73-70.63m-166.76-41.25l-22.93-71.64-74.88.09 60.74-43.68-22.77-70.63 59.84 43.68 59.84-43.68-22.77 70.63 60.74 43.68h-74.88l-22.93 71.55m-83.12-451.49l59.81-43.66-22.74 70.61 60.74 43.68h-74.88l-22.93 71.56-22.924-71.72-74.922.16 60.781-43.68-22.773-70.61 59.838 43.66m106.05-239.6l-22.93 71.559-22.93-71.641-74.88.082 60.74-43.66-22.77-70.64 59.84 43.75 59.84-43.75-22.77 70.64 60.74 43.66h-74.88m227.03-227.019l-22.93 71.469-22.89-71.559-74.92.09 60.74-43.672-22.73-70.641 59.84 43.672 59.8-43.672-22.73 70.641 60.74 43.672h-74.92m309.3-82.281l-22.93 71.558-22.89-71.636-74.92.078 60.74-43.668-22.73-70.633 59.84 43.68 59.8-43.68-22.77 70.633 60.78 43.668h-74.92m309.3 82.281l-22.89 71.469-22.97-71.559-74.84.09 60.7-43.672-22.73-70.641 59.84 43.672 59.84-43.672-22.81 70.641 60.78 43.672h-74.92m227.11 227.019l-22.97 71.559-22.97-71.641-74.84.082 60.78-43.66-22.81-70.64 59.84 43.75 59.84-43.75-22.81 70.64 60.78 43.66h-74.84m157.11 311.09h-74.92l-22.97 71.56-22.89-71.64-74.92.08 60.78-43.67-22.74-70.62 59.77 43.74 59.84-43.74-22.73 70.62 60.78 43.67m-239.93 195.09l59.84 43.66 59.85-43.66-22.81 70.63 60.78 43.59h-74.85l-22.97 71.55-22.96-71.64-74.85.09 60.78-43.59-22.81-70.63m-166.32 411.94l-22.89-71.64-74.92.17 60.7-43.75-22.73-70.64 59.92 43.75 59.76-43.75-22.73 70.64 60.78 43.75h-75l-22.89 71.47" fill="#f5f014"/><g fill="#264ca4"><path d="M3404.29 1716.74v422.33h289.53v-71.44h-204.26v-99.97h176.31v-71.44h-176.31v-179.48h-85.27m359.24 0v305.95h80.96v-305.95zm0 347.44v74.89h80.96v-74.89h-80.96m442.23-347.44h-80.96v156.15c0 33.03-1.73 54.4-5.19 64.09-3.45 9.7-9.07 17.24-16.85 22.62s-17.14 8.06-28.09 8.06c-14.02 0-26.6-3.84-37.74-11.52s-18.77-17.86-22.9-30.53c-4.13-12.68-6.19-36.11-6.19-70.3v-138.57h-80.95v305.95h75.18v-44.94c26.69 34.57 60.31 51.85 100.83 51.85 17.86 0 34.18-3.21 48.98-9.65 14.78-6.43 25.97-14.64 33.56-24.63 7.58-9.99 12.86-21.32 15.84-33.99 2.98-12.68 4.48-30.83 4.48-54.45v-190.14m250.91 146.93c-10.37-3.46-26.79-7.59-49.26-12.39-22.48-4.81-37.16-9.51-44.08-14.12-10.56-7.49-15.85-17-15.85-28.52 0-11.33 4.22-21.12 12.68-29.38 8.45-8.26 19.2-12.39 32.26-12.39 14.59 0 28.53 4.8 41.77 14.4 9.81 7.3 16.23 16.23 19.31 26.8 2.11 6.91 3.17 20.06 3.17 39.46zm-108.32 65.68l-73.46 13.25c8.25 29.58 22.47 51.47 42.63 65.69 20.17 14.2 50.13 21.31 89.89 21.31 36.1 0 62.98-4.28 80.66-12.82 17.67-8.55 30.11-19.4 37.3-32.55 7.21-13.16 10.81-37.31 10.81-72.45l-.86-94.49c0-26.9 1.29-46.72 3.88-59.49 2.6-12.78 7.44-26.46 14.55-41.06h-80.08c-2.12 5.38-4.71 13.35-7.78 23.91-1.35 4.8-2.3 7.97-2.89 9.51-13.83-13.45-28.61-23.53-44.35-30.25-15.76-6.72-32.56-10.08-50.42-10.08-31.51 0-56.32 8.55-74.48 25.64-18.14 17.09-27.21 38.69-27.21 64.82 0 17.28 4.12 32.69 12.38 46.24 8.25 13.53 19.82 23.9 34.72 31.11 14.88 7.2 36.33 13.49 64.38 18.87 37.83 7.1 64.05 13.73 78.65 19.88v8.06c0 15.56-3.84 26.65-11.52 33.28-7.69 6.62-22.19 9.93-43.51 9.93-14.4 0-25.63-2.83-33.7-8.5-8.06-5.66-14.6-15.6-19.59-29.81m545.93-212.61h-80.96v156.15c0 33.03-1.73 54.4-5.18 64.09-3.46 9.7-9.07 17.24-16.86 22.62-7.77 5.38-17.14 8.06-28.08 8.06-14.03 0-26.61-3.84-37.75-11.52-11.13-7.68-18.77-17.86-22.9-30.53-4.13-12.68-6.19-36.11-6.19-70.3v-138.57h-80.95v305.95h75.19v-44.94c26.69 34.57 60.3 51.85 100.83 51.85 17.86 0 34.18-3.21 48.97-9.65 14.79-6.43 25.98-14.64 33.57-24.63 7.58-9.99 12.86-21.32 15.84-33.99 2.98-12.68 4.47-30.83 4.47-54.45v-190.14m49.55 0v63.09l114.66 131.66c18.82 21.51 32.74 36.78 41.78 45.8-9.42-.57-21.81-.96-37.17-1.15l-108.03-.57v67.12H5208v-57.33l-116.95-134.82-41.2-44.66 41.76 2.02h125.33v-71.16h-273.11m327.55 0v305.95h80.96v-305.95zm0 347.44v74.89h80.96v-74.89h-80.96m345.7-168.25c-.57 23.43-6.63 41.24-18.15 53.44s-25.54 18.29-42.05 18.29c-17.68 0-32.27-6.43-43.79-19.3s-17.2-30.34-17-52.43zm-4.61-81.82l80.67-13.54c-10.37-29.57-26.75-52.09-49.12-67.55-22.38-15.46-50.37-23.19-83.98-23.19-53.2 0-92.58 17.38-118.11 52.14-20.17 27.85-30.25 62.99-30.25 105.44 0 50.7 13.24 90.41 39.75 119.13 26.5 28.7 60.02 43.06 100.55 43.06 45.51 0 81.42-15.03 107.74-45.08 26.31-30.06 38.9-76.11 37.74-138.14h-202.81c.57-24.01 7.1-42.68 19.59-56.03 12.48-13.35 28.04-20.03 46.66-20.03 12.68 0 23.34 3.46 31.98 10.38 8.65 6.91 15.17 18.05 19.59 33.41m228.46-97.37h-80.96v305.95h75.2v-43.5c12.86 20.54 24.43 34.08 34.72 40.62 10.27 6.53 21.93 9.79 35 9.79 18.43 0 36.2-5.09 53.29-15.26l-25.06-70.59c-13.64 8.84-26.32 13.26-38.03 13.26-11.34 0-20.94-3.13-28.81-9.37-7.88-6.24-14.07-17.52-18.58-33.85s-6.77-50.51-6.77-102.56v-94.49m292.4 305.95v-64.53h-55.31v-123.3c0-24.97.53-39.52 1.58-43.65 1.06-4.13 3.46-7.54 7.21-10.23 3.74-2.68 8.3-4.03 13.68-4.03 7.49 0 18.34 2.6 32.56 7.78l6.91-62.8c-18.82-8.07-40.14-12.1-63.96-12.1-14.59 0-27.75 2.45-39.46 7.34-11.72 4.9-20.32 11.24-25.78 19.01-5.48 7.79-9.27 18.3-11.38 31.55-1.74 9.41-2.6 28.43-2.6 57.04v133.39h-37.17v64.53h37.17v60.79l81.24 47.24v-108.03h55.31m304.22-305.95l-123.3 305.95h84.99l57.62-156.14 16.71-52.15 8.36 26.22c2.68 8.64 5.56 17.28 8.63 25.93l58.2 156.14h83.25l-121.57-305.95h-72.89m308.25 152.97c0-30.34 7.2-53.58 21.62-69.71 14.39-16.13 32.15-24.2 53.29-24.2 21.12 0 38.83 8.07 53.15 24.2 14.31 16.13 21.47 39.56 21.47 70.29 0 29.96-7.16 53.01-21.47 69.14-14.32 16.14-32.03 24.2-53.15 24.2-21.14 0-38.9-8.06-53.29-24.2-14.42-16.13-21.62-39.37-21.62-69.72zm-82.96 4.33c0 26.88 6.63 52.91 19.87 78.07 13.26 25.16 32.03 44.36 56.33 57.62 24.28 13.25 51.42 19.87 81.38 19.87 46.28 0 84.21-15.03 113.79-45.08 29.57-30.06 44.37-68.04 44.37-113.94 0-46.29-14.93-84.65-44.8-115.09s-67.46-45.66-112.79-45.66c-28.04 0-54.79 6.34-80.23 19.01-25.44 12.68-44.79 31.26-58.05 55.75-13.24 24.48-19.87 54.3-19.87 89.45m657.41-157.3h-80.96v156.15c0 33.03-1.73 54.4-5.19 64.09-3.45 9.7-9.07 17.24-16.85 22.62-7.77 5.38-17.14 8.06-28.09 8.06-14.02 0-26.6-3.84-37.74-11.52-11.13-7.68-18.77-17.86-22.9-30.53-4.13-12.68-6.19-36.11-6.19-70.3v-138.57h-80.95v305.95h75.19v-44.94c26.69 34.57 60.3 51.85 100.83 51.85 17.86 0 34.18-3.21 48.97-9.65 14.79-6.43 25.98-14.64 33.56-24.63s12.87-21.32 15.84-33.99c2.98-12.68 4.48-30.83 4.48-54.45v-190.14m310.54 159.6c0-32.65 4.52-56.27 13.55-70.87 13.06-21.13 31.3-31.69 54.74-31.69 18.62 0 34.47 7.92 47.53 23.77 13.06 15.84 19.59 39.51 19.59 71.01 0 35.15-6.34 60.45-19.02 75.92-12.67 15.45-28.91 23.18-48.68 23.18-19.21 0-35.29-7.63-48.25-22.9-12.97-15.26-19.46-38.08-19.46-68.42zm216.08-159.6h-75.2v44.94c-12.49-17.48-27.22-30.49-44.22-39.03s-34.14-12.82-51.42-12.82c-35.15 0-65.26 14.16-90.31 42.49-25.07 28.33-37.6 67.84-37.6 118.55 0 51.85 12.2 91.27 36.58 118.26 24.39 26.98 55.22 40.47 92.48 40.47 34.18 0 63.76-14.21 88.73-42.63v152.1h80.96v-422.33m261.58 179.19c-.58 23.43-6.63 41.24-18.15 53.44-11.53 12.2-25.54 18.29-42.05 18.29-17.68 0-32.27-6.43-43.79-19.3-11.53-12.87-17.2-30.34-17.01-52.43zm-4.61-81.82l80.67-13.54c-10.38-29.57-26.75-52.09-49.13-67.55-22.37-15.46-50.37-23.19-83.97-23.19-53.2 0-92.58 17.38-118.12 52.14-20.16 27.85-30.24 62.99-30.24 105.44 0 50.7 13.24 90.41 39.75 119.13 26.5 28.7 60.02 43.06 100.54 43.06 45.52 0 81.43-15.03 107.75-45.08 26.31-30.06 38.89-76.11 37.74-138.14h-202.81c.57-24.01 7.1-42.68 19.59-56.03 12.48-13.35 28.04-20.03 46.66-20.03 12.67 0 23.34 3.46 31.98 10.38 8.64 6.91 15.17 18.05 19.59 33.41m228.46-97.37h-80.96v305.95h75.2v-43.5c12.86 20.54 24.43 34.08 34.71 40.62 10.28 6.53 21.94 9.79 35 9.79 18.44 0 36.2-5.09 53.29-15.26l-25.05-70.59c-13.65 8.84-26.32 13.26-38.03 13.26-11.34 0-20.94-3.13-28.81-9.37-7.88-6.24-14.07-17.52-18.58-33.85-4.52-16.33-6.77-50.51-6.77-102.56v-94.49m-4928.58-708v422.34h313.15v-71.45H3489V1266h212.03v-71.15H3489v-114.94h235.93v-71.17h-321.21m594.32 0v45.81c-11.14-16.32-25.78-29.19-43.94-38.6-18.14-9.41-37.3-14.12-57.47-14.12-20.55 0-38.99 4.52-55.31 13.54-16.33 9.03-28.13 21.7-35.44 38.03-7.29 16.32-10.94 38.89-10.94 67.7v193.59h80.95v-140.58c0-43.02 1.49-69.39 4.46-79.09 2.98-9.69 8.4-17.38 16.28-23.04 7.88-5.67 17.87-8.5 29.96-8.5 13.83 0 26.23 3.79 37.16 11.38 10.96 7.59 18.44 17 22.48 28.23 4.03 11.24 6.05 38.75 6.05 82.54v129.06h80.95v-305.95h-75.19m236.52 0h-80.95v305.95h75.19v-43.5c12.86 20.55 24.44 34.09 34.72 40.62 10.27 6.53 21.93 9.8 35 9.8 18.44 0 36.2-5.1 53.29-15.27l-25.06-70.58c-13.64 8.83-26.32 13.25-38.03 13.25-11.33 0-20.93-3.13-28.8-9.37-7.89-6.24-14.08-17.52-18.59-33.85-4.51-16.32-6.77-50.51-6.77-102.55v-94.5m216.35 152.98c0-30.35 7.2-53.58 21.61-69.71 14.4-16.14 32.16-24.2 53.29-24.2s38.84 8.06 53.16 24.2c14.3 16.13 21.46 39.56 21.46 70.28 0 29.96-7.16 53.01-21.46 69.14-14.32 16.14-32.03 24.2-53.16 24.2s-38.89-8.06-53.29-24.2c-14.41-16.13-21.61-39.37-21.61-69.71zm-82.97 4.32c0 26.88 6.63 52.91 19.88 78.07 13.26 25.16 32.03 44.37 56.32 57.62s51.43 19.88 81.39 19.88c46.28 0 84.21-15.03 113.79-45.09 29.57-30.06 44.36-68.04 44.36-113.94 0-46.29-14.93-84.65-44.79-115.09-29.87-30.44-67.46-45.66-112.79-45.66-28.04 0-54.79 6.34-80.23 19.01-25.45 12.68-44.79 31.26-58.05 55.75-13.25 24.49-19.88 54.3-19.88 89.45m456.92.86c0-34.38 6.8-59.78 20.45-76.19 13.63-16.43 30.25-24.63 49.84-24.63 18.82 0 34.46 7.53 46.95 22.61 12.48 15.07 18.73 39.8 18.73 74.18 0 32.07-6.44 55.89-19.3 71.45-12.87 15.55-28.81 23.33-47.83 23.33-19.78 0-36.2-7.64-49.25-22.9-13.07-15.27-19.59-37.89-19.59-67.85zm-80.1 147.79h75.49v-44.94c9.78 15.36 23.04 27.85 39.74 37.45 16.72 9.6 35.25 14.41 55.61 14.41 35.53 0 65.68-13.93 90.46-41.78 24.77-27.85 37.16-66.64 37.16-116.38 0-51.09-12.48-90.8-37.45-119.13s-55.22-42.49-90.75-42.49c-16.9 0-32.21 3.37-45.94 10.09-13.74 6.72-28.2 18.24-43.36 34.57V892.359h-80.96v422.331m512.22 54.16v69.43h69.71v-69.43zm19.3-213.18c-10.37-3.46-26.79-7.59-49.27-12.38-22.47-4.81-37.15-9.52-44.07-14.13-10.56-7.49-15.85-16.99-15.85-28.51 0-11.34 4.22-21.13 12.68-29.39 8.45-8.26 19.2-12.39 32.26-12.39 14.59 0 28.53 4.81 41.77 14.41 9.81 7.29 16.23 16.23 19.31 26.79 2.11 6.92 3.17 20.07 3.17 39.47zm-143.18 213.18v69.43h69.43v-69.43zm34.86-147.5l-73.46 13.25c8.25 29.58 22.47 51.47 42.63 65.69 20.17 14.21 50.13 21.32 89.88 21.32 36.11 0 62.99-4.28 80.67-12.83 17.66-8.54 30.11-19.4 37.3-32.55 7.21-13.15 10.81-37.31 10.81-72.45l-.87-94.49c0-26.89 1.3-46.72 3.89-59.49 2.6-12.77 7.44-26.46 14.55-41.06h-80.09c-2.11 5.38-4.7 13.35-7.77 23.92-1.35 4.8-2.3 7.97-2.89 9.5-13.83-13.45-28.61-23.52-44.35-30.24-15.76-6.72-32.56-10.09-50.42-10.09-31.51 0-56.32 8.54-74.48 25.64-18.14 17.09-27.21 38.7-27.21 64.82 0 17.28 4.12 32.69 12.38 46.24 8.25 13.53 19.82 23.91 34.72 31.11 14.88 7.2 36.33 13.49 64.38 18.87 37.83 7.1 64.05 13.73 78.65 19.88v8.06c0 15.56-3.85 26.65-11.52 33.28-7.69 6.62-22.19 9.94-43.51 9.94-14.4 0-25.63-2.84-33.7-8.5-8.06-5.67-14.6-15.61-19.59-29.82m267.62-212.61v305.95h80.96v-305.95zm0 347.44v74.9h80.96v-74.9h-80.96m135.41-260.14l81.24 12.38c3.46-15.75 10.47-27.7 21.03-35.87 10.56-8.16 25.35-12.23 44.37-12.23 20.93 0 36.68 3.83 47.25 11.52 7.1 5.37 10.65 12.58 10.65 21.6 0 6.14-1.92 11.24-5.76 15.27-4.03 3.84-13.07 7.4-27.08 10.66-65.3 14.4-106.69 27.56-124.16 39.47-24.2 16.51-36.31 39.46-36.31 68.85 0 26.5 10.47 48.78 31.41 66.84 20.92 18.05 53.38 27.08 97.37 27.08 41.86 0 72.98-6.83 93.34-20.46 20.35-13.64 34.37-33.8 42.06-60.5l-76.35-14.11c-3.26 11.9-9.45 21.03-18.57 27.37-9.13 6.33-22.14 9.5-39.05 9.5-21.3 0-36.58-2.98-45.8-8.93-6.15-4.23-9.21-9.7-9.21-16.42 0-5.76 2.68-10.66 8.06-14.69 7.3-5.38 32.5-12.97 75.63-22.76 43.11-9.8 73.21-21.8 90.31-36.01 16.89-14.4 25.35-34.48 25.35-60.21 0-28.04-11.72-52.14-35.15-72.31-23.43-20.16-58.09-30.25-103.99-30.25-41.68 0-74.67 8.45-98.96 25.35-24.3 16.91-40.19 39.86-47.68 68.86m623.42 128.19l-79.81-14.4c-2.69 15.94-8.79 27.94-18.29 36.01-9.51 8.07-21.85 12.1-37.02 12.1-20.17 0-36.25-6.96-48.25-20.89-12.01-13.93-18.01-37.21-18.01-69.86 0-36.3 6.09-61.93 18.29-76.91s28.57-22.47 49.12-22.47c15.36 0 27.95 4.36 37.74 13.1 9.8 8.74 16.72 23.77 20.74 45.09l79.51-13.54c-8.25-36.5-24.1-64.06-47.53-82.68-23.44-18.63-54.83-27.95-94.21-27.95-44.74 0-80.42 14.12-107.02 42.35-26.6 28.24-39.89 67.32-39.89 117.25 0 50.51 13.34 89.83 40.04 117.97 26.69 28.13 62.8 42.21 108.32 42.21 37.25 0 66.88-8.03 88.87-24.06 21.99-16.04 37.79-40.48 47.4-73.32m142.02 206.85V1275.8c26.12 30.54 57.33 45.81 93.63 45.81 18.62 0 35.43-3.46 50.41-10.38 14.98-6.91 26.27-15.75 33.86-26.5 7.58-10.76 12.76-22.67 15.56-35.72 2.78-13.06 4.18-33.33 4.18-60.79v-179.48h-80.96v161.62c0 32.07-1.54 52.43-4.61 61.07-3.08 8.65-8.5 15.51-16.28 20.61-7.77 5.08-17.53 7.63-29.24 7.63-13.45 0-25.45-3.27-36-9.8-10.57-6.53-18.31-16.37-23.2-29.52-4.9-13.16-7.35-32.61-7.35-58.34v-153.27h-80.95v422.34h80.95m461.52-243.15c-.57 23.43-6.63 41.24-18.15 53.44-11.53 12.2-25.54 18.3-42.05 18.3-17.68 0-32.27-6.44-43.79-19.3-11.53-12.88-17.2-30.35-17-52.44zm-4.61-81.81l80.67-13.54c-10.37-29.58-26.75-52.1-49.12-67.56-22.38-15.46-50.38-23.19-83.98-23.19-53.2 0-92.58 17.38-118.11 52.15-20.17 27.84-30.25 62.99-30.25 105.43 0 50.71 13.24 90.41 39.75 119.13 26.5 28.71 60.02 43.07 100.54 43.07 45.52 0 81.43-15.03 107.75-45.09 26.31-30.06 38.9-76.11 37.74-138.14h-202.81c.57-24 7.1-42.68 19.59-56.03 12.48-13.35 28.04-20.02 46.66-20.02 12.68 0 23.34 3.46 31.98 10.37 8.65 6.91 15.17 18.06 19.59 33.42"/><use xlink:href="#B"/><path d="M7468.61 1431.08h85.27v-228.74c0-36.3 1.05-59.83 3.17-70.58 3.65-17.28 12.34-31.16 26.08-41.63 13.73-10.47 32.5-15.7 56.32-15.7 24.2 0 42.44 4.94 54.73 14.83s19.69 22.04 22.18 36.45c2.5 14.4 3.75 38.31 3.75 71.73v233.64h85.27v-221.83c0-50.7-2.3-86.52-6.91-107.45-4.61-20.94-13.11-38.6-25.5-53.01-12.38-14.4-28.95-25.89-49.7-34.43-20.74-8.54-47.81-12.81-81.23-12.81-40.33 0-70.92 4.66-91.75 13.96-20.84 9.32-37.31 21.42-49.42 36.3-12.09 14.88-20.07 30.49-23.9 46.82-5.58 24.2-8.36 59.92-8.36 107.16v225.29"/><use xlink:href="#B" x="950.39"/><path d="M8255.08 1008.74v305.95h80.96v-305.95zm0 347.44v74.9h80.96v-74.9h-80.96m228.17-194.46c0-30.35 7.19-53.58 21.61-69.71 14.39-16.14 32.15-24.2 53.29-24.2 21.12 0 38.84 8.06 53.15 24.2 14.31 16.13 21.47 39.56 21.47 70.28 0 29.96-7.16 53.01-21.47 69.14-14.31 16.14-32.03 24.2-53.15 24.2-21.14 0-38.9-8.06-53.29-24.2-14.42-16.13-21.61-39.37-21.61-69.71zm-82.97 4.32c0 26.88 6.63 52.91 19.87 78.07 13.26 25.16 32.03 44.37 56.33 57.62 24.28 13.25 51.42 19.88 81.38 19.88 46.28 0 84.21-15.03 113.79-45.09 29.57-30.06 44.37-68.04 44.37-113.94 0-46.29-14.93-84.65-44.8-115.09s-67.46-45.66-112.79-45.66c-28.04 0-54.78 6.34-80.22 19.01-25.45 12.68-44.8 31.26-58.06 55.75-13.24 24.49-19.87 54.3-19.87 89.45m657.42-157.3h-80.96v156.15c0 33.03-1.73 54.4-5.18 64.1-3.46 9.69-9.08 17.23-16.86 22.61-7.77 5.38-17.14 8.07-28.09 8.07-14.02 0-26.6-3.85-37.74-11.53-11.13-7.68-18.77-17.86-22.9-30.53-4.13-12.68-6.19-36.11-6.19-70.29v-138.58h-80.95v305.95h75.19v-44.94c26.69 34.57 60.3 51.86 100.83 51.86 17.86 0 34.18-3.22 48.97-9.65 14.79-6.44 25.98-14.65 33.57-24.64 7.57-9.99 12.86-21.32 15.84-33.99 2.97-12.68 4.47-30.83 4.47-54.45v-190.14"/></g><text transform="matrix(10 0 0 -10 3364.98 248.941)" font-size="51" font-family="Arial" writing-mode="lr-tb" fill="#505256"><tspan x="0 36.831 65.194 90.694 104.864 144.533 172.898 201.261 229.624 246.608 274.972 289.142 300.472 328.835 357.199 391.216" y="0">NextGenerationEU</tspan></text></g><defs ><path id="B" d="M7222.59 1008.74h-80.96v156.15c0 33.03-1.72 54.4-5.18 64.1-3.46 9.69-9.07 17.23-16.86 22.61-7.77 5.38-17.14 8.07-28.08 8.07-14.03 0-26.6-3.85-37.75-11.53-11.13-7.68-18.77-17.86-22.9-30.53-4.13-12.68-6.19-36.11-6.19-70.29v-138.58h-80.95v305.95h75.19v-44.94c26.69 34.57 60.3 51.86 100.83 51.86 17.86 0 34.18-3.22 48.97-9.65 14.79-6.44 25.98-14.65 33.57-24.64 7.58-9.99 12.86-21.32 15.84-33.99 2.98-12.68 4.47-30.83 4.47-54.45v-190.14"/></defs></svg>
