<?xml version="1.0" encoding="UTF-8" standalone="no"?>
<svg
   xmlns:dc="http://purl.org/dc/elements/1.1/"
   xmlns:cc="http://creativecommons.org/ns#"
   xmlns:rdf="http://www.w3.org/1999/02/22-rdf-syntax-ns#"
   xmlns:svg="http://www.w3.org/2000/svg"
   xmlns="http://www.w3.org/2000/svg"
   id="svg3549"
   version="1.1"
   viewBox="0 0 214.84167 188.38334"
   height="712"
   width="812">
  <defs
     id="defs3543" />
  <metadata
     id="metadata3546">
    <rdf:RDF>
      <cc:Work
         rdf:about="">
        <dc:format>image/svg+xml</dc:format>
        <dc:type
           rdf:resource="http://purl.org/dc/dcmitype/StillImage" />
        <dc:title></dc:title>
      </cc:Work>
    </rdf:RDF>
  </metadata>
  <g
     transform="translate(140.48319,4.6665733)"
     id="layer1">
    <path
       id="path3959-98-0"
       style="font-style:normal;font-variant:normal;font-weight:bold;font-stretch:normal;font-size:26.09371758px;line-height:1.25;font-family:Rubik;-inkscape-font-specification:'Rubik, Bold';font-variant-ligatures:normal;font-variant-caps:normal;font-variant-numeric:normal;font-feature-settings:normal;text-align:center;letter-spacing:0px;word-spacing:0px;writing-mode:lr-tb;text-anchor:middle;fill:#000000;fill-opacity:1;stroke:none;stroke-width:1.50540602"
       d="m -102.99892,41.991297 6.921528,-7.635706 q 0.262154,-0.265173 0.786524,-0.583278 0.524369,-0.318167 1.258451,-0.318167 h 7.708034 q 0.524349,0 0.89139,0.371181 0.367061,0.37116 0.367061,0.901444 0,0.265111 -0.104927,0.477229 -0.05236,0.159368 -0.471927,0.583258 l -9.333525,10.499121 11.01146,12.461012 q 0.314618,0.371221 0.419483,0.583298 0.104927,0.158962 0.104927,0.424236 0,0.530223 -0.36704,0.901423 -0.367041,0.371161 -0.891411,0.371161 h -7.81288 q -0.786544,0 -1.310894,-0.212098 -0.471946,-0.265111 -0.838967,-0.689326 l -8.337287,-9.491609 v 8.961345 q 0,0.583298 -0.41947,1.007493 -0.41952,0.424195 -0.99629,0.424195 h -6.60692 q -0.57679,0 -0.99627,-0.424195 -0.41949,-0.424195 -0.41949,-1.007493 V 24.810947 q 0,-0.583257 0.41949,-1.007493 0.41948,-0.424194 0.99627,-0.424194 h 6.60692 q 0.57677,0 0.99629,0.424194 0.41947,0.424236 0.41947,1.007493 z" />
    <path
       id="path3961-8-8"
       style="font-style:normal;font-variant:normal;font-weight:bold;font-stretch:normal;font-size:26.09371758px;line-height:1.25;font-family:Rubik;-inkscape-font-specification:'Rubik, Bold';font-variant-ligatures:normal;font-variant-caps:normal;font-variant-numeric:normal;font-feature-settings:normal;text-align:center;letter-spacing:0px;word-spacing:0px;writing-mode:lr-tb;text-anchor:middle;fill:#000000;fill-opacity:1;stroke:none;stroke-width:1.50540602"
       d="m -80.317643,34.995419 c 0,-0.379535 0.139631,-0.707316 0.418712,-0.983303 0.279142,-0.276047 0.610625,-0.414051 0.99445,-0.414051 h 6.594735 c 0.383825,0 0.715308,0.138227 0.99445,0.414051 0.279141,0.275987 0.418712,0.603768 0.418712,0.983303 v 13.093666 c -0.130702,6.465695 7.416472,6.217557 7.469889,0 V 34.995419 c 0,-0.379535 0.139632,-0.707316 0.418713,-0.983303 0.279141,-0.276047 0.610625,-0.414051 0.994449,-0.414051 h 6.594756 c 0.383805,0 0.715288,0.138227 0.99445,0.414051 0.279121,0.275987 0.418692,0.603768 0.418692,0.983303 v 24.655165 c 0,0.379514 -0.139632,0.707316 -0.418692,0.983323 -0.279162,0.276027 -0.610645,0.414031 -0.99445,0.414031 h -6.07136 c -0.383825,0 -0.715308,-0.138227 -0.99445,-0.414031 -0.279141,-0.276007 -0.418712,-0.603809 -0.418712,-0.983323 v -1.728287 c -0.279142,0.379515 -0.628079,0.75907 -1.046791,1.138565 -3.920403,3.089051 -9.969398,2.221228 -13.384225,-0.879795 -1.988879,-1.897676 -2.983328,-4.882101 -2.983328,-8.953418 z" />
    <path
       id="path3963-87-1"
       style="font-style:normal;font-variant:normal;font-weight:bold;font-stretch:normal;font-size:26.09371758px;line-height:1.25;font-family:Rubik;-inkscape-font-specification:'Rubik, Bold';font-variant-ligatures:normal;font-variant-caps:normal;font-variant-numeric:normal;font-feature-settings:normal;text-align:center;letter-spacing:0px;word-spacing:0px;writing-mode:lr-tb;text-anchor:middle;fill:#000000;fill-opacity:1;stroke:none;stroke-width:1.50540602"
       d="m -37.896178,59.61562 q 0,0.575188 -0.417657,0.993487 -0.417677,0.41832 -0.991933,0.41832 h -6.577991 q -0.574297,0 -0.991933,-0.41832 -0.417657,-0.418299 -0.417657,-0.993487 V 25.31387 q 0,-0.575167 0.417657,-0.993487 0.417636,-0.41832 0.991933,-0.41832 h 6.577991 q 0.574256,0 0.991933,0.41832 0.417657,0.41832 0.417657,0.993487 z" />
    <path
       id="path3965-3-1"
       style="font-style:normal;font-variant:normal;font-weight:bold;font-stretch:normal;font-size:26.09371758px;line-height:1.25;font-family:Rubik;-inkscape-font-specification:'Rubik, Bold';font-variant-ligatures:normal;font-variant-caps:normal;font-variant-numeric:normal;font-feature-settings:normal;text-align:center;letter-spacing:0px;word-spacing:0px;writing-mode:lr-tb;text-anchor:middle;fill:#000000;fill-opacity:1;stroke:none;stroke-width:1.50540602"
       d="m -18.9304,50.263316 q 0,1.21957 0.522077,1.908916 0.522056,0.636292 1.722807,0.636292 h 4.176489 q 0.574297,0 0.991954,0.424195 0.417636,0.424215 0.417636,1.007513 v 5.355589 q 0,0.583298 -0.417636,1.007473 -0.417657,0.424215 -0.991954,0.424215 h -4.959583 q -2.453702,0 -4.489747,-0.689347 -1.983846,-0.742341 -3.393436,-2.06798 -1.409549,-1.378673 -2.192644,-3.287589 -0.783114,-1.961951 -0.783114,-4.401131 v -8.908331 h -3.863272 q -0.574256,0 -0.991913,-0.424215 -0.417636,-0.424195 -0.417636,-1.007493 v -5.355569 q 0,-0.583298 0.417636,-1.007493 0.417657,-0.424194 0.991913,-0.424194 h 3.863272 v -8.64322 q 0,-0.583257 0.417657,-1.007472 0.417637,-0.424215 0.991913,-0.424215 h 6.578032 q 0.574235,0 0.991892,0.424215 0.417657,0.424215 0.417657,1.007472 v 8.64322 h 5.899338 q 0.574255,0 0.991892,0.424194 0.417657,0.424195 0.417657,1.007493 v 5.355569 q 0,0.583298 -0.417657,1.007493 -0.417637,0.424215 -0.991892,0.424215 H -18.9304 Z" />
    <path
       id="path3967-8-8"
       style="font-style:normal;font-variant:normal;font-weight:bold;font-stretch:normal;font-size:26.09371758px;line-height:1.25;font-family:Rubik;-inkscape-font-specification:'Rubik, Bold';font-variant-ligatures:normal;font-variant-caps:normal;font-variant-numeric:normal;font-feature-settings:normal;text-align:center;letter-spacing:0px;word-spacing:0px;writing-mode:lr-tb;text-anchor:middle;fill:#000000;fill-opacity:1;stroke:none;stroke-width:1.50540602"
       d="m 44.903077,33.598065 q 0.574276,0 0.991913,0.422 0.417657,0.421978 0.417657,1.002207 v 5.327619 q 0,0.580269 -0.417657,1.002268 -0.417637,0.422 -0.991913,0.422 h -4.750785 q -4.802985,0 -4.802985,4.852889 v 12.976254 q 0,0.580228 -0.417637,1.002207 -0.417657,0.422 -0.991953,0.422 h -6.577992 q -0.574255,0 -0.991912,-0.422 -0.417637,-0.421979 -0.417637,-1.002207 v -24.58103 q 0,-0.580229 0.417637,-1.002207 0.417657,-0.422 0.991912,-0.422 h 6.055936 q 0.574296,0 0.991933,0.422 0.417657,0.421978 0.417657,1.002207 V 36.2355 q 1.200751,-1.160478 2.871339,-1.898956 1.722828,-0.738479 4.07211,-0.738479 z" />
    <path
       id="path3971-8-7"
       style="font-style:normal;font-variant:normal;font-weight:bold;font-stretch:normal;font-size:26.09371758px;line-height:1.25;font-family:Rubik;-inkscape-font-specification:'Rubik, Bold';font-variant-ligatures:normal;font-variant-caps:normal;font-variant-numeric:normal;font-feature-settings:normal;text-align:center;letter-spacing:0px;word-spacing:0px;writing-mode:lr-tb;text-anchor:middle;fill:#000000;fill-opacity:1;stroke:none;stroke-width:1.50540602"
       d="m -5.7296445,34.995419 c 0,-0.379535 0.1396316,-0.707316 0.4187124,-0.983303 0.2791416,-0.276047 0.6106247,-0.414051 0.9944292,-0.414051 h 6.5947761 c 0.3837841,0 0.7152673,0.138227 0.9944495,0.414051 0.2791213,0.275987 0.4186921,0.603768 0.4186921,0.983303 v 13.093666 c -0.1307017,6.465695 7.4164722,6.217557 7.4698692,0 V 34.995419 c 0,-0.379535 0.139631,-0.707316 0.418732,-0.983303 0.279122,-0.276047 0.610625,-0.414051 0.99445,-0.414051 h 6.594756 c 0.383825,0 0.715287,0.138227 0.994429,0.414051 0.279142,0.275987 0.418712,0.603768 0.418712,0.983303 v 24.655165 c 0,0.379514 -0.139631,0.707316 -0.418712,0.983323 -0.279142,0.276027 -0.610604,0.414031 -0.994429,0.414031 h -6.071381 c -0.383804,0 -0.715287,-0.138227 -0.994449,-0.414031 C 11.82425,60.3579 11.6847,60.030098 11.6847,59.650584 v -1.728287 c -0.279142,0.379515 -0.628079,0.75907 -1.046771,1.138565 -0.383825,0.345019 -0.8723532,0.6728 -1.4655241,0.983323 -0.5931708,0.276028 -1.2910248,0.500281 -2.0935822,0.672821 -0.767609,0.206934 -0.6308592,0.310503 -1.712538,0.310503 -3.3846071,0 -6.08879385,-0.948828 -8.1125806,-2.846442 -1.9888991,-1.897676 -2.9833486,-4.882101 -2.9833486,-8.953418 z" />
    <path
       id="path3975-9-6"
       style="font-style:normal;font-variant:normal;font-weight:bold;font-stretch:normal;font-size:25.56661797px;line-height:1.25;font-family:Rubik;-inkscape-font-specification:'Rubik, Bold';font-variant-ligatures:normal;font-variant-caps:normal;font-variant-numeric:normal;font-feature-settings:normal;text-align:center;letter-spacing:0px;word-spacing:0px;writing-mode:lr-tb;text-anchor:middle;fill:#000000;fill-opacity:1;stroke:none;stroke-width:1.47499669"
       d="m -103.04396,106.40765 q 0,0.57497 -0.41747,0.99308 -0.41752,0.41816 -0.99153,0.41816 h -6.57539 q -0.57406,0 -0.99153,-0.41816 -0.41748,-0.41811 -0.41748,-0.99308 V 72.119706 q 0,-0.574943 0.41748,-0.993101 0.41747,-0.418137 0.99153,-0.418137 h 6.57539 q 0.57401,0 0.99153,0.418137 0.41747,0.418158 0.41747,0.993101 z" />
    <path
       id="path3977-6-1"
       style="font-style:normal;font-variant:normal;font-weight:bold;font-stretch:normal;font-size:25.56661797px;line-height:1.25;font-family:Rubik;-inkscape-font-specification:'Rubik, Bold';font-variant-ligatures:normal;font-variant-caps:normal;font-variant-numeric:normal;font-feature-settings:normal;text-align:center;letter-spacing:0px;word-spacing:0px;writing-mode:lr-tb;text-anchor:middle;fill:#000000;fill-opacity:1;stroke:none;stroke-width:1.47499669"
       d="m -98.475871,99.620824 q 0,-3.418214 2.774733,-5.645216 2.830261,-2.227062 9.156673,-3.262851 l 6.492913,-1.035849 q 0,-1.242967 -0.721437,-2.019844 -0.721437,-0.828692 -2.497276,-0.828692 -1.276392,0 -1.997829,0.362562 -0.665929,0.310726 -0.998894,0.569678 -0.499467,0.414356 -0.943427,0.517925 -0.44396,0.10367 -1.054402,0.10367 h -7.047828 q -0.554955,0 -0.943448,-0.310767 -0.332944,-0.310746 -0.277477,-0.82863 0.111015,-1.191213 1.10991,-2.485995 0.998894,-1.294781 2.719266,-2.382405 1.775818,-1.087583 4.1621,-1.812686 2.441788,-0.725062 5.272029,-0.725062 3.385196,0 5.882472,0.776856 2.497256,0.776877 4.106613,2.175228 1.664864,1.346555 2.441788,3.262851 0.776925,1.86448 0.776925,4.143297 v 15.692786 q 0,0.56967 -0.44396,0.98401 -0.44396,0.41434 -1.054402,0.41434 h -6.992361 q -0.610442,0 -1.054402,-0.41434 -0.44396,-0.41434 -0.44396,-0.98401 v -1.45019 q -1.331879,1.55375 -3.329708,2.48599 -1.942321,0.88045 -5.161034,0.88045 -2.386282,0 -4.273116,-0.62149 -1.831326,-0.62152 -3.107698,-1.7091 -1.220884,-1.08762 -1.886834,-2.58958 -0.665929,-1.50196 -0.665929,-3.262855 z m 12.652843,1.191236 q 1.220884,0 2.275286,-0.36256 1.054402,-0.41434 1.831326,-1.087648 0.776945,-0.673268 1.220905,-1.553673 0.443959,-0.93224 0.443959,-1.96809 l -5.105547,0.725062 q -1.498361,0.258973 -2.441768,0.880446 -0.88792,0.621493 -0.88792,1.605528 0,0.984035 0.66593,1.398375 0.721437,0.36256 1.997829,0.36256 z" />
    <path
       id="path3979-86-8"
       style="font-style:normal;font-variant:normal;font-weight:bold;font-stretch:normal;font-size:25.56661797px;line-height:1.25;font-family:Rubik;-inkscape-font-specification:'Rubik, Bold';font-variant-ligatures:normal;font-variant-caps:normal;font-variant-numeric:normal;font-feature-settings:normal;text-align:center;letter-spacing:0px;word-spacing:0px;writing-mode:lr-tb;text-anchor:middle;fill:#000000;fill-opacity:1;stroke:none;stroke-width:1.47499669"
       d="m -21.217964,79.567668 q 1.514009,0 2.662561,0.313735 1.148531,0.313734 1.983845,0.784337 0.835294,0.470582 1.40955,1.045769 0.574276,0.522926 0.939733,0.993508 v -11.13761 q 0,-0.575187 0.417657,-0.993507 0.417637,-0.41832 0.991892,-0.41832 h 6.5780126 q 0.5742961,0 0.9919329,0.41832 0.417657,0.41832 0.417657,0.993507 v 34.301773 q 0,0.57516 -0.417657,0.99348 -0.4176368,0.4183 -0.9919329,0.4183 h -6.3169536 q -0.574296,0 -0.991953,-0.4183 -0.417657,-0.41832 -0.417657,-0.99348 v -1.20268 q -0.469837,0.57519 -1.044092,1.15035 -0.522077,0.52289 -1.357391,0.99353 -0.783094,0.4183 -1.983845,0.67971 -1.148511,0.31376 -2.871359,0.31376 -2.349283,0 -4.437528,-0.67973 -2.088244,-0.73208 -3.654453,-2.19619 -1.566189,-1.51637 -2.558081,-3.76484 -0.939754,-2.248423 -1.044153,-5.333449 -0.05216,-0.784378 -0.05216,-2.091621 0,-1.359484 0.05216,-2.143841 0.104318,-3.085067 1.044153,-5.333493 0.991892,-2.248447 2.558081,-3.712557 1.566209,-1.516352 3.654453,-2.248427 2.088245,-0.732034 4.437528,-0.732034 z m -2.349283,12.654001 q -0.15668,1.464069 0,2.928199 0.15668,1.830107 1.200751,3.189652 1.044153,1.359504 3.497835,1.359504 1.148551,0 1.983845,-0.366038 0.835294,-0.366017 1.35737,-0.941184 0.574276,-0.62749 0.887494,-1.359545 0.313237,-0.732034 0.417677,-1.516351 0.104318,-0.784338 0.104318,-1.830168 0,-1.04579 -0.104318,-1.830086 -0.104318,-0.784338 -0.417677,-1.516413 -0.313218,-0.732055 -0.887494,-1.307201 -0.522076,-0.627491 -1.35737,-0.993528 -0.835294,-0.366017 -1.983845,-0.366017 -2.453682,0 -3.497835,1.359545 -1.044112,1.359504 -1.200751,3.189631 z" />
    <path
       id="path3981-9-8"
       style="font-style:normal;font-variant:normal;font-weight:bold;font-stretch:normal;font-size:26.09371758px;line-height:1.25;font-family:Rubik;-inkscape-font-specification:'Rubik, Bold';font-variant-ligatures:normal;font-variant-caps:normal;font-variant-numeric:normal;font-feature-settings:normal;text-align:center;letter-spacing:0px;word-spacing:0px;writing-mode:lr-tb;text-anchor:middle;fill:#000000;fill-opacity:1;stroke:none;stroke-width:1.50540602"
       d="m -37.797137,105.89095 c 0,0.37951 -0.139631,0.70729 -0.418732,0.9833 -0.279122,0.27605 -0.610605,0.41403 -0.99445,0.41403 h -6.594735 c -0.383825,0 -0.715308,-0.13822 -0.99445,-0.41403 -0.279121,-0.27601 -0.418712,-0.60379 -0.418712,-0.9833 V 92.797283 c 0.130702,-6.465695 -7.416432,-6.217577 -7.469889,0 v 13.093667 c 0,0.37951 -0.139632,0.70729 -0.418693,0.9833 -0.279161,0.27605 -0.610645,0.41403 -0.994449,0.41403 h -6.594756 c -0.383825,0 -0.715308,-0.13822 -0.994449,-0.41403 -0.279142,-0.27601 -0.418713,-0.60379 -0.418713,-0.9833 V 81.235764 c 0,-0.379515 0.139632,-0.707316 0.418713,-0.983323 0.279141,-0.276007 0.610624,-0.414011 0.994449,-0.414011 h 6.07134 c 0.383845,0 0.715328,0.138227 0.99445,0.414011 0.279141,0.276007 0.418732,0.603808 0.418732,0.983323 v 1.728306 c 0.279122,-0.379535 0.628079,-0.75907 1.046771,-1.138564 0.383845,-0.345019 0.872313,-0.672821 1.465504,-0.983344 0.59317,-0.276007 1.291024,-0.50028 2.093562,-0.67282 0.767649,-0.206914 0.63092,-0.310503 1.712578,-0.310503 3.384607,0 6.088794,0.948827 8.112581,2.846462 1.988899,1.897655 2.983348,4.88208 2.983348,8.953418 z" />
    <path
       id="path3983-5-3"
       style="font-style:normal;font-variant:normal;font-weight:bold;font-stretch:normal;font-size:25.56661797px;line-height:1.25;font-family:Rubik;-inkscape-font-specification:'Rubik, Bold';font-variant-ligatures:normal;font-variant-caps:normal;font-variant-numeric:normal;font-feature-settings:normal;text-align:center;letter-spacing:0px;word-spacing:0px;writing-mode:lr-tb;text-anchor:middle;fill:#000000;fill-opacity:1;stroke:none;stroke-width:1.47499669"
       d="m -96.044534,126.91196 q 2.349303,0 4.437527,0.73199 2.088265,0.732 3.654453,2.24843 1.566189,1.46419 2.505902,3.71262 0.991913,2.24842 1.096332,5.33353 0.05216,0.78424 0.05216,2.14374 0,1.30726 -0.05216,2.0917 -0.104318,3.08491 -1.096332,5.33333 -0.939713,2.24843 -2.505902,3.76486 -1.566188,1.46419 -3.654453,2.19619 -2.088224,0.67975 -4.437527,0.67975 -1.722808,0 -2.923539,-0.31365 -1.148547,-0.26142 -1.983847,-0.67976 -0.78309,-0.47058 -1.35737,-0.99361 -0.52205,-0.57506 -0.99193,-1.15033 v 1.20258 q 0,0.57527 -0.41766,0.99361 -0.41766,0.41834 -0.99191,0.41834 h -6.31698 q -0.57427,0 -0.99193,-0.41834 -0.41763,-0.41834 -0.41763,-0.99361 v -34.30169 q 0,-0.57517 0.41763,-0.99347 0.41766,-0.41832 0.99193,-0.41832 h 6.578 q 0.57427,0 0.99193,0.41832 0.41764,0.4183 0.41764,0.99347 v 11.13767 q 0.36545,-0.47058 0.93971,-0.99361 0.57428,-0.57507 1.40959,-1.04565 0.835314,-0.47058 1.983825,-0.78444 1.148552,-0.31365 2.662541,-0.31365 z m 2.349303,12.65388 q -0.15668,-1.83009 -1.200752,-3.18959 -1.044152,-1.35951 -3.497854,-1.35951 -1.148512,0 -1.983803,0.3661 -0.83532,0.3659 -1.40959,0.99341 -0.52206,0.57527 -0.83532,1.30726 -0.31323,0.73199 -0.41765,1.51643 -0.10432,0.78424 -0.10432,1.83009 0,1.04585 0.10432,1.83009 0.10431,0.78443 0.41765,1.51643 0.31326,0.73199 0.83532,1.3595 0.57427,0.57507 1.40959,0.94117 0.835291,0.3661 1.983803,0.3661 2.453702,0 3.497854,-1.35951 1.044113,-1.3595 1.200752,-3.18959 0.156679,-1.46419 0,-2.92838 z" />
    <path
       id="path3985-968-5"
       style="font-style:normal;font-variant:normal;font-weight:bold;font-stretch:normal;font-size:25.56661797px;line-height:1.25;font-family:Rubik;-inkscape-font-specification:'Rubik, Bold';font-variant-ligatures:normal;font-variant-caps:normal;font-variant-numeric:normal;font-feature-settings:normal;text-align:center;letter-spacing:0px;word-spacing:0px;writing-mode:lr-tb;text-anchor:middle;fill:#000000;fill-opacity:1;stroke:none;stroke-width:1.47499669"
       d="m -13.591943,128.12653 q 0.570785,0 0.985884,0.4159 0.4151,0.4157 0.4151,0.98731 v 5.24917 q 0,0.57161 -0.4151,0.98731 -0.415099,0.4159 -0.985884,0.4159 h -4.721824 q -4.77372,0 -4.77372,4.78124 v 12.78478 q 0,0.57161 -0.415079,0.98731 -0.41512,0.4159 -0.985885,0.4159 h -6.537929 q -0.570744,0 -0.985885,-0.4159 -0.415079,-0.4157 -0.415079,-0.98731 v -24.2184 q 0,-0.57161 0.415079,-0.98731 0.415141,-0.4159 0.985885,-0.4159 h 6.019039 q 0.570785,0 0.985885,0.4159 0.415079,0.4157 0.415079,0.98731 v 1.19546 q 1.193466,-1.14342 2.853865,-1.87095 1.712335,-0.72772 4.04731,-0.72772 z" />
    <path
       id="path3987-6-6"
       style="font-style:normal;font-variant:normal;font-weight:bold;font-stretch:normal;font-size:25.56661797px;line-height:1.25;font-family:Rubik;-inkscape-font-specification:'Rubik, Bold';font-variant-ligatures:normal;font-variant-caps:normal;font-variant-numeric:normal;font-feature-settings:normal;text-align:center;letter-spacing:0px;word-spacing:0px;writing-mode:lr-tb;text-anchor:middle;fill:#000000;fill-opacity:1;stroke:none;stroke-width:1.47499669"
       d="m 19.478908,139.66402 q 0.05196,0.77956 0.05196,2.02686 0,1.19546 -0.05196,1.97502 -0.103709,2.49439 -1.14151,4.67736 -1.03778,2.18257 -2.853884,3.84576 -1.816065,1.61096 -4.410495,2.54643 -2.5425139,0.93547 -5.7077085,0.93547 -3.1651742,0 -5.75956342,-0.93547 -2.54255498,-0.93547 -4.35861928,-2.54643 -1.8161049,-1.66319 -2.8538443,-3.84576 -1.03778,-2.18297 -1.1415499,-4.67736 -0.051956,-0.77956 -0.051956,-1.97502 0,-1.2473 0.051956,-2.02686 0.051956,-2.49459 1.0896345,-4.67736 1.03778,-2.18277 2.8538443,-3.79373 1.8679797,-1.66319 4.41053468,-2.59867 2.59438922,-0.9873 5.75956342,-0.9873 3.1651946,0 5.7077085,0.9873 2.59443,0.93548 4.410495,2.59867 1.868,1.61096 2.853884,3.79373 1.03776,2.18277 1.14151,4.67736 z m -18.88731658,3.74189 q 0.15566497,1.97482 1.40098478,3.11824 1.2972149,1.09139 3.3727343,1.09139 2.0755398,0 3.3208596,-1.09139 1.2971946,-1.14342 1.4528599,-3.11824 0.103709,-0.77956 0.103709,-1.76687 0,-0.98751 -0.103709,-1.76707 -0.1556653,-1.97482 -1.4528599,-3.0662 -1.2453198,-1.14342 -3.3208596,-1.14342 -2.0755194,0 -3.3727343,1.14342 -1.24531981,1.09138 -1.40098478,3.0662 -0.103709,0.77956 -0.103709,1.76707 0,0.98731 0.103709,1.76687 z" />
    <g
       id="g3995-47-8"
       transform="matrix(0,2.1572065,-2.0594567,0,1435.6301,-791.12136)"
       style="stroke-width:0.49233428">
      <path
         id="path3991-6-8"
         d="m 437.42253,718.92607 q 0,0.28123 -0.20453,0.48576 -0.20454,0.20454 -0.48577,0.20454 H 434.15 q -0.28123,0 -0.48576,-0.20454 -0.20454,-0.20453 -0.20454,-0.48576 v -2.58223 q 0,-0.28123 0.20454,-0.48577 0.20453,-0.20453 0.48576,-0.20453 h 2.58223 q 0.28123,0 0.48577,0.20453 0.20453,0.20454 0.20453,0.48577 z"
         style="font-style:normal;font-variant:normal;font-weight:bold;font-stretch:normal;font-size:25.56661797px;line-height:1.25;font-family:Rubik;-inkscape-font-specification:'Rubik, Bold';font-variant-ligatures:normal;font-variant-caps:normal;font-variant-numeric:normal;font-feature-settings:normal;text-align:center;letter-spacing:0px;word-spacing:0px;writing-mode:lr-tb;text-anchor:middle;fill:#000000;fill-opacity:1;stroke:none;stroke-width:0.72619134" />
      <path
         style="font-style:normal;font-variant:normal;font-weight:bold;font-stretch:normal;font-size:25.56661797px;line-height:1.25;font-family:Rubik;-inkscape-font-specification:'Rubik, Bold';font-variant-ligatures:normal;font-variant-caps:normal;font-variant-numeric:normal;font-feature-settings:normal;text-align:center;letter-spacing:0px;word-spacing:0px;writing-mode:lr-tb;text-anchor:middle;fill:#000000;fill-opacity:1;stroke:none;stroke-width:0.72619134"
         d="m 430.88569,718.92607 q 0,0.28123 -0.20453,0.48576 -0.20454,0.20454 -0.48577,0.20454 h -2.58223 q -0.28123,0 -0.48576,-0.20454 -0.20454,-0.20453 -0.20454,-0.48576 v -2.58223 q 0,-0.28123 0.20454,-0.48577 0.20453,-0.20453 0.48576,-0.20453 h 2.58223 q 0.28123,0 0.48577,0.20453 0.20453,0.20454 0.20453,0.48577 z"
         id="path3993-8-9" />
    </g>
    <path
       d="m -52.212829,127.18069 c 0.384514,0 0.716627,0.14839 0.996215,0.44517 0.279669,0.29678 0.419504,0.64906 0.419504,1.05703 v 7.00954 c 0,0.40797 -0.140038,0.76025 -0.419504,1.05703 -0.279588,0.29678 -0.611701,0.44517 -0.996215,0.44517 h -13.2657 c -6.550634,-0.13822 -6.299236,7.88301 0,7.93973 h 13.2657 c 0.384514,0 0.716627,0.14839 0.996215,0.44497 0.279669,0.29678 0.419504,0.64906 0.419504,1.05703 v 7.00954 c 0,0.40797 -0.140038,0.76045 -0.419504,1.05703 -0.279588,0.29678 -0.611701,0.44517 -0.996215,0.44517 h -24.979074 c -0.384515,0 -0.716607,-0.14839 -0.996256,-0.44517 -0.279649,-0.29658 -0.419463,-0.64906 -0.419463,-1.05703 v -6.45318 c 0,-0.40797 0.140038,-0.76025 0.419463,-1.05703 0.279649,-0.29658 0.611741,-0.44497 0.996256,-0.44497 h 1.750978 c -0.384495,-0.29678 -0.76903,-0.66755 -1.153525,-1.11273 -0.349546,-0.40797 -0.681638,-0.92713 -0.996235,-1.55769 -0.279649,-0.63036 -0.506855,-1.37231 -0.681658,-2.22526 -0.209651,-0.81594 -0.314578,-0.6706 -0.314578,-1.82033 0,-3.59756 0.961287,-6.47187 2.883841,-8.62293 1.922594,-2.11406 4.946229,-3.17109 9.071026,-3.17109 z"
       style="font-style:normal;font-variant:normal;font-weight:bold;font-stretch:normal;font-size:26.09371758px;line-height:1.25;font-family:Rubik;-inkscape-font-specification:'Rubik, Bold';font-variant-ligatures:normal;font-variant-caps:normal;font-variant-numeric:normal;font-feature-settings:normal;text-align:center;letter-spacing:0px;word-spacing:0px;writing-mode:lr-tb;text-anchor:middle;fill:#000000;fill-opacity:1;stroke:none;stroke-width:1.56219745"
       id="path3997-1-9" />
  </g>
</svg>
