<?xml version="1.0" encoding="UTF-8"?>
<svg width="159px" height="133px" viewBox="0 0 159 133" version="1.1" xmlns="http://www.w3.org/2000/svg" xmlns:xlink="http://www.w3.org/1999/xlink">
    <!-- Generator: Sketch 55.1 (78136) - https://sketchapp.com -->
    <title>Slice 1</title>
    <desc>Created with Sketch.</desc>
    <g id="Page-1" stroke="none" stroke-width="1" fill="none" fill-rule="evenodd">
        <g id="klb" fill="#000000" fill-rule="nonzero">
            <path d="M9.48427,18.6578703 L16.405798,11.0221643 C16.5805673,10.8453823 16.842742,10.6509563 17.192322,10.4388863 C17.5419013,10.226775 17.961385,10.1207193 18.450773,10.1207193 L26.158807,10.1207193 C26.508373,10.1207193 26.805503,10.2444463 27.050197,10.4919003 C27.2949043,10.7393403 27.417258,11.0398216 27.417258,11.3933443 C27.417258,11.570085 27.3822823,11.7291613 27.312331,11.8705733 C27.2774243,11.9768186 27.1201153,12.171238 26.840404,12.4538313 L17.506879,22.9529523 L28.518339,35.4139643 C28.7280843,35.661445 28.867912,35.8558776 28.937822,35.9972623 C29.0077733,36.103237 29.042749,36.244649 29.042749,36.4214983 C29.042749,36.7749803 28.9204023,37.0754546 28.675709,37.3229213 C28.431015,37.570362 28.133878,37.6940823 27.784298,37.6940823 L19.971418,37.6940823 C19.4470553,37.6940823 19.0100907,37.623383 18.660524,37.4819843 C18.3458933,37.3052436 18.0662377,37.0754683 17.821557,36.7926583 L9.48427,27.3010493 L9.48427,36.2623943 C9.48427,36.6512596 9.34444667,36.9870906 9.0648,37.2698873 C8.78512,37.552684 8.45302333,37.6940823 8.06851,37.6940823 L1.46159,37.6940823 C1.07706333,37.6940823 0.744973333,37.552684 0.46532,37.2698873 C0.18566,36.9870906 0.04583,36.6512596 0.04583,36.2623943 L0.04583,1.4775203 C0.04583,1.0886823 0.18566,0.7528513 0.46532,0.4700273 C0.744973333,0.1872313 1.07706333,0.0458333 1.46159,0.0458333 L8.06851,0.0458333 C8.45302333,0.0458333 8.78512,0.1872313 9.0648,0.4700273 C9.34444667,0.7528513 9.48427,1.0886823 9.48427,1.4775203 L9.48427,18.6578703 Z" id="path3959-98-0"></path>
            <path d="M32.165547,11.6619923 C32.165547,11.2824573 32.305178,10.9546763 32.584259,10.6786893 C32.863401,10.4026423 33.194884,10.2646383 33.578709,10.2646383 L40.173444,10.2646383 C40.557269,10.2646383 40.888752,10.4028653 41.167894,10.6786893 C41.447035,10.9546763 41.586606,11.2824573 41.586606,11.6619923 L41.586606,24.7556583 C41.455904,31.2213533 49.003078,30.9732153 49.056495,24.7556583 L49.056495,11.6619923 C49.056495,11.2824573 49.196127,10.9546763 49.475208,10.6786893 C49.754349,10.4026423 50.085833,10.2646383 50.469657,10.2646383 L57.064413,10.2646383 C57.448218,10.2646383 57.779701,10.4028653 58.058863,10.6786893 C58.337984,10.9546763 58.477555,11.2824573 58.477555,11.6619923 L58.477555,36.3171573 C58.477555,36.6966713 58.337923,37.0244733 58.058863,37.3004803 C57.779701,37.5765073 57.448218,37.7145113 57.064413,37.7145113 L50.993053,37.7145113 C50.609228,37.7145113 50.277745,37.5762843 49.998603,37.3004803 C49.719462,37.0244733 49.579891,36.6966713 49.579891,36.3171573 L49.579891,34.5888703 C49.300749,34.9683853 48.951812,35.3479403 48.5331,35.7274353 C44.612697,38.8164863 38.563702,37.9486633 35.148875,34.8476403 C33.159996,32.9499643 32.165547,29.9655393 32.165547,25.8942223 L32.165547,11.6619923 Z" id="path3961-8-8"></path>
            <path d="M74.587012,36.2821933 C74.587012,36.665652 74.447793,36.9968143 74.169355,37.2756803 C73.8909037,37.5545603 73.5602593,37.6940003 73.177422,37.6940003 L66.599431,37.6940003 C66.2165663,37.6940003 65.885922,37.5545603 65.607498,37.2756803 C65.32906,36.9968143 65.189841,36.665652 65.189841,36.2821933 L65.189841,1.9804433 C65.189841,1.59699863 65.32906,1.2658363 65.607498,0.9869563 C65.885922,0.7080763 66.2165663,0.5686363 66.599431,0.5686363 L73.177422,0.5686363 C73.5602593,0.5686363 73.8909037,0.7080763 74.169355,0.9869563 C74.447793,1.2658363 74.587012,1.59699863 74.587012,1.9804433 L74.587012,36.2821933 Z" id="path3963-87-1"></path>
            <path d="M93.55279,26.9298893 C93.55279,27.742936 93.7268157,28.3792413 94.074867,28.8388053 C94.4229043,29.263 94.9971733,29.4750973 95.797674,29.4750973 L99.974163,29.4750973 C100.357028,29.4750973 100.687679,29.6164956 100.966117,29.8992923 C101.244541,30.1821023 101.383753,30.51794 101.383753,30.9068053 L101.383753,36.2623943 C101.383753,36.6512596 101.244541,36.987084 100.966117,37.2698673 C100.687679,37.5526773 100.357028,37.6940823 99.974163,37.6940823 L95.01458,37.6940823 C93.3787787,37.6940823 91.8821963,37.4643 90.524833,37.0047353 C89.202269,36.5098413 88.0711237,35.8205146 87.131397,34.9367553 C86.1916977,34.01764 85.4608163,32.921777 84.938753,31.6491663 C84.416677,30.341199 84.155639,28.8741553 84.155639,27.2480353 L84.155639,18.3397043 L80.292367,18.3397043 C79.9095297,18.3397043 79.578892,18.1982993 79.300454,17.9154893 C79.02203,17.6326926 78.882818,17.2968616 78.882818,16.9079963 L78.882818,11.5524273 C78.882818,11.163562 79.02203,10.827731 79.300454,10.5449343 C79.578892,10.2621383 79.9095297,10.1207403 80.292367,10.1207403 L84.155639,10.1207403 L84.155639,1.4775203 C84.155639,1.0886823 84.294858,0.7528583 84.573296,0.4700483 C84.8517207,0.1872383 85.1823583,0.0458333 85.565209,0.0458333 L92.143241,0.0458333 C92.5260643,0.0458333 92.856695,0.1872383 93.135133,0.4700483 C93.413571,0.7528583 93.55279,1.0886823 93.55279,1.4775203 L93.55279,10.1207403 L99.452128,10.1207403 C99.8349647,10.1207403 100.165595,10.2621383 100.44402,10.5449343 C100.722458,10.827731 100.861677,11.163562 100.861677,11.5524273 L100.861677,16.9079963 C100.861677,17.2968616 100.722458,17.6326926 100.44402,17.9154893 C100.165595,18.1982993 99.8349647,18.3397043 99.452128,18.3397043 L93.55279,18.3397043 L93.55279,26.9298893 Z" id="path3965-3-1"></path>
            <path d="M157.386267,10.2646383 C157.769118,10.2646383 158.099755,10.405305 158.37818,10.6866383 C158.656618,10.967957 158.795837,11.302026 158.795837,11.6888453 L158.795837,17.0164643 C158.795837,17.4033103 158.656618,17.7373996 158.37818,18.0187323 C158.099755,18.3000656 157.769118,18.4407323 157.386267,18.4407323 L152.635482,18.4407323 C149.433492,18.4407323 147.832497,20.058362 147.832497,23.2936213 L147.832497,36.2698753 C147.832497,36.656694 147.693285,36.990763 147.41486,37.2720823 C147.136422,37.5534156 146.805771,37.6940823 146.422907,37.6940823 L139.844915,37.6940823 C139.462078,37.6940823 139.131441,37.5534156 138.853003,37.2720823 C138.574578,36.990763 138.435366,36.656694 138.435366,36.2698753 L138.435366,11.6888453 C138.435366,11.302026 138.574578,10.967957 138.853003,10.6866383 C139.131441,10.405305 139.462078,10.2646383 139.844915,10.2646383 L145.900851,10.2646383 C146.283715,10.2646383 146.614359,10.405305 146.892784,10.6866383 C147.171222,10.967957 147.310441,11.302026 147.310441,11.6888453 L147.310441,12.9020733 C148.110942,12.1284213 149.068055,11.495436 150.18178,11.0031173 C151.330332,10.510798 152.687702,10.2646383 154.25389,10.2646383 L157.386267,10.2646383 Z" id="path3967-8-8"></path>
            <path d="M106.753546,11.6619923 C106.753546,11.2824573 106.893177,10.9546763 107.172258,10.6786893 C107.4514,10.4026423 107.782883,10.2646383 108.166687,10.2646383 L114.761463,10.2646383 C115.145247,10.2646383 115.476731,10.4028653 115.755913,10.6786893 C116.035034,10.9546763 116.174605,11.2824573 116.174605,11.6619923 L116.174605,24.7556583 C116.043903,31.2213533 123.591077,30.9732153 123.644474,24.7556583 L123.644474,11.6619923 C123.644474,11.2824573 123.784105,10.9546763 124.063206,10.6786893 C124.342328,10.4026423 124.673831,10.2646383 125.057656,10.2646383 L131.652412,10.2646383 C132.036237,10.2646383 132.367699,10.4028653 132.646841,10.6786893 C132.925983,10.9546763 133.065553,11.2824573 133.065553,11.6619923 L133.065553,36.3171573 C133.065553,36.6966713 132.925922,37.0244733 132.646841,37.3004803 C132.367699,37.5765073 132.036237,37.7145113 131.652412,37.7145113 L125.581031,37.7145113 C125.197227,37.7145113 124.865744,37.5762843 124.586582,37.3004803 C124.30744,37.0244733 124.16789,36.6966713 124.16789,36.3171573 L124.16789,34.5888703 C123.888748,34.9683853 123.539811,35.3479403 123.121119,35.7274353 C122.737294,36.0724543 122.248766,36.4002353 121.655595,36.7107583 C121.062424,36.9867863 120.36457,37.2110393 119.562013,37.3835793 C118.794404,37.5905133 118.931153,37.6940823 117.849475,37.6940823 C114.464868,37.6940823 111.760681,36.7452543 109.736894,34.8476403 C107.747995,32.9499643 106.753546,29.9655393 106.753546,25.8942223 L106.753546,11.6619923 Z" id="path3971-8-7"></path>
            <path d="M9.43923,83.0742233 C9.43923,83.4575366 9.30007333,83.7885633 9.02176,84.0673033 C8.74341333,84.3460766 8.41290333,84.4854633 8.03023,84.4854633 L1.45484,84.4854633 C1.07213333,84.4854633 0.741623333,84.3460766 0.46331,84.0673033 C0.18499,83.7885633 0.04583,83.4575366 0.04583,83.0742233 L0.04583,48.7862793 C0.04583,48.402984 0.18499,48.0719503 0.46331,47.7931783 C0.741623333,47.5144203 1.07213333,47.3750413 1.45484,47.3750413 L8.03023,47.3750413 C8.41290333,47.3750413 8.74341333,47.5144203 9.02176,47.7931783 C9.30007333,48.0719503 9.43923,48.402984 9.43923,48.7862793 L9.43923,83.0742233 Z" id="path3975-9-6"></path>
            <path d="M14.007319,76.2873973 C14.007319,74.008588 14.93223,72.1268493 16.782052,70.6421813 C18.6688927,69.1574733 21.721117,68.0698563 25.938725,67.3793303 L32.431638,66.3434813 C32.431638,65.5148366 32.191159,64.8415553 31.710201,64.3236373 C31.229243,63.771176 30.3968177,63.4949453 29.212925,63.4949453 C28.361997,63.4949453 27.696054,63.6157993 27.215096,63.8575073 C26.7711433,64.064658 26.4381787,64.2545506 26.216202,64.4271853 C25.883224,64.7034226 25.5687483,64.8760643 25.272775,64.9451103 C24.9768017,65.0142236 24.6253343,65.0487803 24.218373,65.0487803 L17.170545,65.0487803 C16.800575,65.0487803 16.4860923,64.9451913 16.227097,64.7380133 C16.0051343,64.5308493 15.912642,64.2546393 15.94962,63.9093833 C16.02363,63.1152413 16.3936,62.2865763 17.05953,61.4233883 C17.7254593,60.560201 18.6318813,59.766066 19.778796,59.0409833 C20.9626747,58.315928 22.3500413,57.7116993 23.940896,57.2282973 C25.5687547,56.7449226 27.3260977,56.5032353 29.212925,56.5032353 C31.4697223,56.5032353 33.4305463,56.7621873 35.095397,57.2800913 C36.7602343,57.7980093 38.1291053,58.5230853 39.20201,59.4553193 C40.3119193,60.3530226 41.1258487,61.4406396 41.643798,62.7181703 C42.161748,63.961157 42.420723,65.342256 42.420723,66.8614673 L42.420723,82.5542533 C42.420723,82.9340333 42.2727363,83.2620366 41.976763,83.5382633 C41.6807897,83.81449 41.3293223,83.9526033 40.922361,83.9526033 L33.93,83.9526033 C33.5230387,83.9526033 33.1715713,83.81449 32.875598,83.5382633 C32.5796247,83.2620366 32.431638,82.9340333 32.431638,82.5542533 L32.431638,81.1040633 C31.5437187,82.1398966 30.433816,82.96856 29.10193,83.5900533 C27.8070493,84.17702 26.0867047,84.4705033 23.940896,84.4705033 C22.3500413,84.4705033 20.9256693,84.26334 19.66778,83.8490133 C18.446896,83.4346666 17.4109967,82.8649666 16.560082,82.1399133 C15.7461593,81.4148333 15.1172147,80.55164 14.673248,79.5503333 C14.2292953,78.5490266 14.007319,77.4614083 14.007319,76.2874783 L14.007319,76.2873973 Z M26.660162,77.4786333 C27.4740847,77.4786333 28.2325133,77.35778 28.935448,77.1160733 C29.6383827,76.8398466 30.2488247,76.4772973 30.766774,76.0284253 C31.2847373,75.57958 31.6917057,75.061689 31.987679,74.4747523 C32.2836517,73.853259 32.431638,73.197229 32.431638,72.5066623 L27.326091,73.2317243 C26.3271837,73.404373 25.513261,73.697855 24.884323,74.1121703 C24.2923763,74.526499 23.996403,75.061675 23.996403,75.7176983 C23.996403,76.3737216 24.2183797,76.8398466 24.662333,77.1160733 C25.143291,77.35778 25.809234,77.4786333 26.660162,77.4786333 L26.660162,77.4786333 Z" id="path3977-6-1"></path>
            <path d="M91.265226,56.2342413 C92.2745653,56.2342413 93.1620857,56.3388196 93.927787,56.5479763 C94.6934743,56.7571323 95.354756,57.018578 95.911632,57.3323133 C96.4684947,57.6460346 96.9383447,57.9946243 97.321182,58.3780823 C97.7040327,58.7266996 98.017277,59.057869 98.260915,59.3715903 L98.260915,48.2339803 C98.260915,47.8505223 98.400134,47.5193533 98.678572,47.2404733 C98.9569967,46.9615933 99.2876273,46.8221533 99.670464,46.8221533 L106.248477,46.8221533 C106.631341,46.8221533 106.961985,46.9615933 107.24041,47.2404733 C107.518851,47.5193533 107.658067,47.8505223 107.658067,48.2339803 L107.658067,82.5357533 C107.658067,82.9191933 107.518851,83.2503533 107.24041,83.5292333 C106.961985,83.8081 106.631341,83.9475333 106.248477,83.9475333 L99.931523,83.9475333 C99.548659,83.9475333 99.218008,83.8081 98.93957,83.5292333 C98.661132,83.2503533 98.521913,82.9191933 98.521913,82.5357533 L98.521913,81.3330733 C98.2086883,81.7165333 97.8606577,82.0999833 97.477821,82.4834233 C97.1297697,82.8320166 96.677306,83.1631933 96.12043,83.4769533 C95.5983673,83.75582 94.9370857,83.98239 94.136585,84.1566633 C93.370911,84.3658366 92.4137913,84.4704233 91.265226,84.4704233 C89.6990373,84.4704233 88.2198613,84.2438466 86.827698,83.7906933 C85.4355353,83.30264 84.2173843,82.5705766 83.173245,81.5945033 C82.129119,80.58359 81.2764253,79.3286433 80.615164,77.8296633 C79.9886613,76.3307146 79.6406103,74.5528983 79.571011,72.4962143 C79.5362377,71.9732956 79.518851,71.2760886 79.518851,70.4045933 C79.518851,69.4982706 79.5362377,68.783657 79.571011,68.2607523 C79.6405563,66.204041 79.9886073,64.42621 80.615164,62.9272593 C81.2764253,61.4282946 82.129119,60.1907756 83.173245,59.2147023 C84.2173843,58.203801 85.4355353,57.4543253 86.827698,56.9662753 C88.2198613,56.4782526 89.6990373,56.2342413 91.265226,56.2342413 L91.265226,56.2342413 Z M88.915943,68.8882423 C88.8114897,69.8642883 88.8114897,70.8403546 88.915943,71.8164413 C89.0203963,73.0365126 89.4206467,74.09973 90.116694,75.0060933 C90.812796,75.9124293 91.978741,76.3655973 93.614529,76.3655973 C94.3802297,76.3655973 95.0415113,76.2435846 95.598374,75.9995593 C96.1552367,75.755548 96.6076933,75.44182 96.955744,75.0583753 C97.3385947,74.6400486 97.634426,74.186867 97.843238,73.6988303 C98.0520627,73.2108076 98.1912883,72.7053573 98.260915,72.1824793 C98.3304603,71.6595873 98.365233,71.0495313 98.365233,70.3523113 C98.365233,69.655118 98.3304603,69.0450893 98.260915,68.5222253 C98.1913697,67.9993333 98.052144,67.4938623 97.843238,67.0058123 C97.634426,66.5177756 97.3385947,66.082042 96.955744,65.6986113 C96.6076933,65.280284 96.1552367,64.949108 95.598374,64.7050833 C95.0415113,64.461072 94.3802297,64.3390663 93.614529,64.3390663 C91.978741,64.3390663 90.812796,64.792248 90.116694,65.6986113 C89.4206193,66.6049473 89.020369,67.6681576 88.915943,68.8882423 Z" id="path3979-86-8"></path>
            <path d="M74.686053,82.5575233 C74.686053,82.9370333 74.546422,83.2648133 74.267321,83.5408233 C73.988199,83.8168733 73.656716,83.9548533 73.272871,83.9548533 L66.678136,83.9548533 C66.294311,83.9548533 65.962828,83.8166333 65.683686,83.5408233 C65.404565,83.2648133 65.264974,82.9370333 65.264974,82.5575233 L65.264974,69.4638563 C65.395676,62.9981613 57.848542,63.2462793 57.795085,69.4638563 L57.795085,82.5575233 C57.795085,82.9370333 57.655453,83.2648133 57.376392,83.5408233 C57.097231,83.8168733 56.765747,83.9548533 56.381943,83.9548533 L49.787187,83.9548533 C49.403362,83.9548533 49.071879,83.8166333 48.792738,83.5408233 C48.513596,83.2648133 48.374025,82.9370333 48.374025,82.5575233 L48.374025,57.9023373 C48.374025,57.5228223 48.513657,57.1950213 48.792738,56.9190143 C49.071879,56.6430073 49.403362,56.5050033 49.787187,56.5050033 L55.858527,56.5050033 C56.242372,56.5050033 56.573855,56.6432303 56.852977,56.9190143 C57.132118,57.1950213 57.271709,57.5228223 57.271709,57.9023373 L57.271709,59.6306433 C57.550831,59.2511083 57.899788,58.8715733 58.31848,58.4920793 C58.702325,58.1470603 59.190793,57.8192583 59.783984,57.5087353 C60.377154,57.2327283 61.075008,57.0084553 61.877546,56.8359153 C62.645195,56.6290013 62.508466,56.5254123 63.590124,56.5254123 C66.974731,56.5254123 69.678918,57.4742393 71.702705,59.3718743 C73.691604,61.2695293 74.686053,64.2539543 74.686053,68.3252923 L74.686053,82.5575233 Z" id="path3981-9-8"></path>
            <path d="M16.438656,103.578533 C18.004858,103.578533 19.4840337,103.82253 20.876183,104.310523 C22.2683597,104.798523 23.4865107,105.548 24.530636,106.558953 C25.574762,107.53508 26.4100627,108.77262 27.036538,110.271573 C27.6978133,111.77052 28.0632573,113.548363 28.13287,115.605103 C28.1676433,116.12793 28.18503,116.84251 28.18503,117.748843 C28.18503,118.62035 28.1676433,119.317583 28.13287,119.840543 C28.0633247,121.89715 27.6978807,123.674927 27.036538,125.173873 C26.4100627,126.672827 25.574762,127.92778 24.530636,128.938733 C23.4865107,129.91486 22.2683597,130.646923 20.876183,131.134923 C19.4840337,131.58809 18.004858,131.814673 16.438656,131.814673 C15.2901173,131.814673 14.3156043,131.710123 13.515117,131.501023 C12.749419,131.326743 12.0881367,131.100157 11.53127,130.821263 C11.00921,130.507543 10.5567533,130.17634 10.1739,129.827653 C9.82586667,129.44428 9.49522333,129.060837 9.18197,128.677323 L9.18197,129.879903 C9.18197,130.263417 9.04275,130.59462 8.76431,130.873513 C8.48587,131.152407 8.15523333,131.291853 7.7724,131.291853 L1.45542,131.291853 C1.07257333,131.291853 0.74193,131.152407 0.46349,130.873513 C0.18507,130.59462 0.04586,130.263417 0.04586,129.879903 L0.04586,95.5782133 C0.04586,95.1947666 0.18507,94.86361 0.46349,94.5847433 C0.74193,94.3058633 1.07257333,94.1664233 1.45542,94.1664233 L8.03342,94.1664233 C8.41626667,94.1664233 8.74691,94.3058633 9.02535,94.5847433 C9.30377667,94.86361 9.44299,95.1947666 9.44299,95.5782133 L9.44299,106.715883 C9.68662333,106.402163 9.99986,106.07096 10.3827,105.722273 C10.7655533,105.338893 11.2354167,104.990343 11.79229,104.676623 C12.349166,104.362903 13.010441,104.101423 13.776115,103.892183 C14.5418163,103.683083 15.42933,103.578533 16.438656,103.578533 L16.438656,103.578533 Z M18.787959,116.232413 C18.6835057,115.012353 18.283255,113.949157 17.587207,113.042823 C16.8911057,112.136483 15.7251543,111.683313 14.089353,111.683313 C13.3236783,111.683313 12.6624107,111.805347 12.10555,112.049413 C11.54867,112.293347 11.0788067,112.624483 10.69596,113.042823 C10.34792,113.426337 10.06948,113.86209 9.86064,114.350083 C9.65182,114.838077 9.51260333,115.343553 9.44299,115.866513 C9.37344333,116.38934 9.33867,116.99937 9.33867,117.696603 C9.33867,118.393837 9.37344333,119.003867 9.44299,119.526693 C9.51253,120.049647 9.65174667,120.555123 9.86064,121.043123 C10.06948,121.531117 10.34792,121.984283 10.69596,122.402623 C11.0788067,122.786003 11.54867,123.099727 12.10555,123.343793 C12.6624107,123.58786 13.3236783,123.709893 14.089353,123.709893 C15.7251543,123.709893 16.8911057,123.256723 17.587207,122.350383 C18.2832823,121.44405 18.683533,120.380853 18.787959,119.160793 C18.8924117,118.184667 18.8924117,117.20854 18.787959,116.232413 L18.787959,116.232413 Z" id="path3983-5-3"></path>
            <path d="M98.891247,104.793103 C99.2717703,104.793103 99.6003983,104.931737 99.877131,105.209003 C100.153864,105.486137 100.292231,105.81524 100.292231,106.196313 L100.292231,111.445483 C100.292231,111.826557 100.153864,112.15566 99.877131,112.432793 C99.6003983,112.71006 99.2717703,112.848693 98.891247,112.848693 L94.169423,112.848693 C90.986943,112.848693 89.395703,114.44244 89.395703,117.629933 L89.395703,130.414713 C89.395703,130.795787 89.2573433,131.12489 88.980624,131.402023 C88.7038773,131.67929 88.375249,131.817923 87.994739,131.817923 L81.45681,131.817923 C81.076314,131.817923 80.7476857,131.67929 80.470925,131.402023 C80.1942057,131.12489 80.055846,130.795787 80.055846,130.414713 L80.055846,106.196313 C80.055846,105.81524 80.1942057,105.486137 80.470925,105.209003 C80.7476857,104.931737 81.076314,104.793103 81.45681,104.793103 L87.475849,104.793103 C87.8563723,104.793103 88.1850007,104.931737 88.461734,105.209003 C88.7384533,105.486137 88.876813,105.81524 88.876813,106.196313 L88.876813,107.391773 C89.672457,106.629493 90.6237453,106.005843 91.730678,105.520823 C92.8722347,105.035677 94.221338,104.793103 95.777988,104.793103 L98.891247,104.793103 Z" id="path3985-968-5"></path>
            <path d="M131.962098,116.330593 C131.996738,116.8503 132.014058,117.52592 132.014058,118.357453 C132.014058,119.154427 131.996738,119.812767 131.962098,120.332473 C131.892959,121.9954 131.512455,123.55452 130.820588,125.009833 C130.128735,126.46488 129.17744,127.7468 127.966704,128.855593 C126.755994,129.929567 125.285829,130.778377 123.556209,131.402023 C121.8612,132.02567 119.95863,132.337493 117.848501,132.337493 C115.738384,132.337493 113.81853,132.02567 112.088937,131.402023 C110.3939,130.778377 108.941027,129.929567 107.730318,128.855593 C106.519581,127.7468 105.5683,126.46488 104.876474,125.009833 C104.18462,123.55452 103.804104,121.9954 103.734924,120.332473 C103.700286,119.812767 103.682968,119.154427 103.682968,118.357453 C103.682968,117.52592 103.700286,116.8503 103.734924,116.330593 C103.769561,114.667533 104.132772,113.108413 104.824558,111.653233 C105.516411,110.198053 106.467693,108.933477 107.678402,107.859503 C108.923722,106.75071 110.3939,105.884487 112.088937,105.260833 C113.81853,104.602633 115.738384,104.273533 117.848501,104.273533 C119.95863,104.273533 121.8612,104.602633 123.556209,105.260833 C125.285829,105.884487 126.755994,106.75071 127.966704,107.859503 C129.212037,108.933477 130.163332,110.198053 130.820588,111.653233 C131.512428,113.108413 131.892931,114.667533 131.962098,116.330593 Z M113.074781,120.072483 C113.178558,121.38903 113.645553,122.428443 114.475766,123.190723 C115.340576,123.918317 116.464821,124.282113 117.848501,124.282113 C119.232194,124.282113 120.339147,123.918317 121.16936,123.190723 C122.034157,122.428443 122.518443,121.38903 122.62222,120.072483 C122.691359,119.552777 122.725929,118.96382 122.725929,118.305613 C122.725929,117.647273 122.691359,117.05825 122.62222,116.538543 C122.518443,115.221997 122.034157,114.19993 121.16936,113.472343 C120.339147,112.710063 119.232194,112.328923 117.848501,112.328923 C116.464821,112.328923 115.340576,112.710063 114.475766,113.472343 C113.645553,114.19993 113.178558,115.221997 113.074781,116.538543 C113.005642,117.05825 112.971072,117.647273 112.971072,118.305613 C112.971072,118.96382 113.005642,119.552777 113.074781,120.072483 Z" id="path3987-6-6"></path>
            <g id="g3995-47-8" transform="translate(70.453108, 117.458421) rotate(90.000000) translate(-70.453108, -117.458421) translate(57.509869, 112.309780)">
                <path d="M24.640756,8.08557117 C24.640756,8.47169184 24.4936848,8.80515907 24.1995425,9.08597285 C23.9053858,9.36680037 23.5560838,9.50721413 23.1516363,9.50721413 L17.581233,9.50721413 C17.1767855,9.50721413 16.8274906,9.36680037 16.5333483,9.08597285 C16.2391917,8.80515907 16.0921133,8.47169184 16.0921133,8.08557117 L16.0921133,2.76758029 C16.0921133,2.38145962 16.2391917,2.04798553 16.5333483,1.76715801 C16.8274906,1.48634422 17.1767855,1.34593733 17.581233,1.34593733 L23.1516363,1.34593733 C23.5560838,1.34593733 23.9053858,1.48634422 24.1995425,1.76715801 C24.4936848,2.04798553 24.640756,2.38145962 24.640756,2.76758029 L24.640756,8.08557117 Z" id="path3991-6-8"></path>
                <path d="M10.5394422,8.08557117 C10.5394422,8.47169184 10.3923711,8.80515907 10.0982288,9.08597285 C9.8040721,9.36680037 9.45477003,9.50721413 9.05032258,9.50721413 L3.47991924,9.50721413 C3.07547178,9.50721413 2.72617691,9.36680037 2.43203461,9.08597285 C2.13787793,8.80515907 1.99079959,8.47169184 1.99079959,8.08557117 L1.99079959,2.76758029 C1.99079959,2.38145962 2.13787793,2.04798553 2.43203461,1.76715801 C2.72617691,1.48634422 3.07547178,1.34593733 3.47991924,1.34593733 L9.05032258,1.34593733 C9.45477003,1.34593733 9.8040721,1.48634422 10.0982288,1.76715801 C10.3923711,2.04798553 10.5394422,2.38145962 10.5394422,2.76758029 L10.5394422,8.08557117 Z" id="path3993-8-9"></path>
            </g>
            <path d="M60.270361,103.847263 C60.654875,103.847263 60.986988,103.995653 61.266576,104.292433 C61.546245,104.589213 61.68608,104.941493 61.68608,105.349463 L61.68608,112.359003 C61.68608,112.766973 61.546042,113.119253 61.266576,113.416033 C60.986988,113.712813 60.654875,113.861203 60.270361,113.861203 L47.004661,113.861203 C40.454027,113.722983 40.705425,121.744213 47.004661,121.800933 L60.270361,121.800933 C60.654875,121.800933 60.986988,121.949323 61.266576,122.245903 C61.546245,122.542683 61.68608,122.894963 61.68608,123.302933 L61.68608,130.312473 C61.68608,130.720443 61.546042,131.072923 61.266576,131.369503 C60.986988,131.666283 60.654875,131.814673 60.270361,131.814673 L35.291287,131.814673 C34.906772,131.814673 34.57468,131.666283 34.295031,131.369503 C34.015382,131.072923 33.875568,130.720443 33.875568,130.312473 L33.875568,123.859293 C33.875568,123.451323 34.015606,123.099043 34.295031,122.802263 C34.57468,122.505683 34.906772,122.357293 35.291287,122.357293 L37.042265,122.357293 C36.65777,122.060513 36.273235,121.689743 35.88874,121.244563 C35.539194,120.836593 35.207102,120.317433 34.892505,119.686873 C34.612856,119.056513 34.38565,118.314563 34.210847,117.461613 C34.001196,116.645673 33.896269,116.791013 33.896269,115.641283 C33.896269,112.043723 34.857556,109.169413 36.78011,107.018353 C38.702704,104.904293 41.726339,103.847263 45.851136,103.847263 L60.270361,103.847263 Z" id="path3997-1-9"></path>
        </g>
    </g>
</svg>