<?xml version="1.0" encoding="UTF-8"?>
<svg width="1180px" height="253px" viewBox="0 0 1180 253" version="1.1" xmlns="http://www.w3.org/2000/svg" xmlns:xlink="http://www.w3.org/1999/xlink">
    <!-- Generator: Sketch 55.1 (78136) - https://sketchapp.com -->
    <title>Slice</title>
    <desc>Created with Sketch.</desc>
    <g id="Page-1" stroke="none" stroke-width="1" fill="none" fill-rule="evenodd">
        <g id="NextGenerationEu" transform="translate(-8.000000, -9.000000)">
            <g id="Group" transform="translate(593.833280, 169.600046) scale(-1, 1) rotate(-180.000000) translate(-593.833280, -169.600046) translate(0.333280, 0.600046)">
                <polyline id="Path" fill="#FFFFFF" fill-rule="nonzero" points="0.061466513 70.0745156 393.32035 70.0745156 393.32035 337.119315 0.061466513 337.119315 0.061466513 70.0745156"></polyline>
                <polyline id="Path" fill="#264CA4" fill-rule="nonzero" points="7.62398094 77.7040966 385.759036 77.7040966 385.759036 329.795333 7.62398094 329.795333 7.62398094 77.7040966 322.553426 0.80339019"></polyline>
                <path d="M188.634195,274.868804 L196.612842,280.691456 L204.592822,274.868804 L201.555496,284.286113 L209.660809,290.108766 L199.670167,290.108766 L196.612842,299.639408 L193.555516,290.098099 L183.571541,290.108766 L191.670187,284.286113 L188.634195,274.868804 M147.342298,263.775498 L155.320945,269.59815 L163.295592,263.775498 L160.263599,273.192808 L168.363579,279.016793 L158.372937,279.016793 L155.316945,288.556769 L152.259619,279.004793 L142.274311,279.016793 L150.372957,273.192808 L147.342298,263.775498 M125.107687,258.275512 L122.050362,248.723536 L112.066386,248.735536 L120.165033,242.91155 L117.129041,233.49424 L125.107687,239.318226 L133.086334,233.49424 L130.050342,242.91155 L138.148988,248.735536 L128.165013,248.735536 L125.107687,258.275512 M114.025048,198.076996 L121.999695,192.255677 L118.967703,201.67032 L127.066349,207.494305 L117.082374,207.494305 L114.025048,217.035615 L110.968523,207.472972 L100.978948,207.494305 L109.083061,201.67032 L106.046668,192.255677 L114.025048,198.076996 M128.165013,166.130409 L125.107687,175.671585 L122.050362,166.119476 L112.066386,166.130409 L120.165033,160.30909 L117.129041,150.890447 L125.107687,156.723766 L133.086334,150.890447 L130.050342,160.30909 L138.148988,166.130409 L128.165013,166.130409 M158.435604,135.861285 L155.378278,145.390461 L152.326286,135.849285 L142.336977,135.861285 L150.435624,130.038366 L147.404965,120.619589 L155.383612,126.442508 L163.356925,120.619589 L160.326266,130.038366 L168.424912,135.861285 L158.435604,135.861285 M199.675501,124.890512 L196.618175,134.431555 L193.566183,124.880112 L183.576874,124.890512 L191.675521,119.068126 L188.644862,109.650417 L196.623508,115.474402 L204.596822,109.650417 L201.560829,119.068126 L209.664809,124.890512 L199.675501,124.890512 M240.915398,135.861285 L237.863405,145.390461 L234.800746,135.849285 L224.822105,135.861285 L232.915418,130.038366 L229.884759,120.619589 L237.863405,126.442508 L245.842052,120.619589 L242.800726,130.038366 L250.904706,135.861285 L240.915398,135.861285 M271.196655,166.130409 L268.133996,175.671585 L265.071337,166.119476 L255.092696,166.130409 L263.196675,160.30909 L260.15535,150.890447 L268.133996,156.723766 L276.112643,150.890447 L273.071317,160.30909 L281.175297,166.130409 L271.196655,166.130409 M292.144603,207.608972 L282.155295,207.608972 L279.092636,217.150281 L276.040643,207.598305 L266.051335,207.608972 L274.155315,201.78632 L271.123322,192.370343 L279.092636,198.202329 L287.071282,192.370343 L284.040623,201.78632 L292.144603,207.608972 M260.154016,233.620907 L268.132663,239.442226 L276.112643,233.620907 L273.071317,243.038217 L281.175297,248.850202 L271.195322,248.850202 L268.132663,258.390178 L265.071337,248.838202 L255.091362,248.850202 L263.195342,243.038217 L260.154016,233.620907 M237.978072,288.546103 L234.926079,278.994127 L224.936771,279.016793 L233.030084,273.183475 L229.999425,263.764831 L237.988738,269.59815 L245.956718,263.764831 L242.926059,273.183475 L251.030039,279.016793 L241.030064,279.016793 L237.978072,288.546103" id="Shape" fill="#F5F014" fill-rule="nonzero"></path>
                <g transform="translate(432.398919, 159.533082)" fill="#264CA4" fill-rule="nonzero">
                    <path d="M0.17199957,109.965058 L0.17199957,166.275584 L38.7759031,166.275584 L38.7759031,156.750275 L11.5413045,156.750275 L11.5413045,143.420975 L35.0492457,143.420975 L35.0492457,133.895665 L11.5413045,133.895665 L11.5413045,109.965058 L0.17199957,109.965058 L0.17199957,109.965058 Z M48.0705465,109.965058 L48.0705465,150.75829 L58.8651862,150.75829 L58.8651862,109.965058 L48.0705465,109.965058 Z M48.0705465,156.290276 L48.0705465,166.275584 L58.8651862,166.275584 L58.8651862,156.290276 L48.0705465,156.290276 L48.0705465,156.290276 Z M107.034399,109.965058 L96.2397594,109.965058 L96.2397594,130.785006 C96.2397594,135.188995 96.0090933,138.038322 95.5477611,139.330318 C95.0877623,140.623648 94.3384308,141.628979 93.3011001,142.346311 C92.2637693,143.063642 91.0157725,143.420975 89.5557761,143.420975 C87.6864475,143.420975 86.0091183,142.908976 84.5237887,141.884979 C83.0384591,140.860981 82.0211283,139.503651 81.470463,137.814322 C80.9197977,136.12366 80.6451317,132.999667 80.6451317,128.441012 L80.6451317,109.965058 L69.8518254,109.965058 L69.8518254,150.75829 L79.8758003,150.75829 L79.8758003,144.766305 C83.4344581,149.375627 87.9171135,151.679621 93.3197667,151.679621 C95.7010941,151.679621 97.8770886,151.251622 99.850417,150.392957 C101.821079,149.535626 103.313075,148.440962 104.325073,147.108966 C105.335737,145.776969 106.039735,144.266306 106.437067,142.576977 C106.8344,140.886314 107.034399,138.46632 107.034399,135.316995 L107.034399,109.965058 L107.034399,109.965058 Z M140.488982,129.555676 C139.106319,129.094344 136.916991,128.543679 133.920999,127.90368 C130.923673,127.262349 128.966344,126.635683 128.04368,126.021018 C126.635683,125.022354 125.930352,123.754357 125.930352,122.218361 C125.930352,120.707698 126.493017,119.402368 127.621014,118.301038 C128.747678,117.199707 130.181008,116.649042 131.922337,116.649042 C133.867665,116.649042 135.726327,117.28904 137.491656,118.569037 C138.799653,119.542368 139.655651,120.733031 140.066317,122.142361 C140.347649,123.063692 140.488982,124.817021 140.488982,127.403681 L140.488982,129.555676 Z M126.046352,138.312988 L116.251709,140.07965 C117.351707,144.02364 119.247702,146.942299 121.935695,148.838295 C124.625022,150.731623 128.619678,151.679621 133.920999,151.679621 C138.73432,151.679621 142.318311,151.108956 144.675638,149.970292 C147.031632,148.830295 148.690295,147.383632 149.648959,145.630303 C150.61029,143.87564 151.090289,140.655648 151.090289,135.970327 L150.975623,123.371692 C150.975623,119.785034 151.147622,117.142374 151.492955,115.439711 C151.83962,113.735716 152.484952,111.91172 153.43295,109.965058 L142.755643,109.965058 C142.472977,110.68239 142.127645,111.745054 141.718312,113.15305 C141.538313,113.793049 141.411646,114.215714 141.33298,114.421047 C139.488985,112.627718 137.518323,111.283722 135.419661,110.387724 C133.318333,109.491726 131.078339,109.043727 128.697012,109.043727 C124.495689,109.043727 121.187697,110.183725 118.76637,112.462386 C116.347709,114.741046 115.138379,117.621039 115.138379,121.105031 C115.138379,123.409025 115.687711,125.463686 116.789041,127.270348 C117.889039,129.074344 119.431701,130.457007 121.418363,131.418338 C123.402358,132.378336 126.262351,133.217 130.002342,133.934332 C135.046329,134.880996 138.54232,135.764994 140.488982,136.584992 L140.488982,137.659656 C140.488982,139.734317 139.976983,141.21298 138.952986,142.096978 C137.927655,142.979643 135.994327,143.420975 133.151667,143.420975 C131.231672,143.420975 129.734342,143.043642 128.658345,142.287644 C127.583681,141.532979 126.711683,140.207649 126.046352,138.312988 L126.046352,138.312988 Z M198.836836,109.965058 L188.042197,109.965058 L188.042197,130.785006 C188.042197,135.188995 187.81153,138.038322 187.351532,139.330318 C186.890199,140.623648 186.142201,141.628979 185.103537,142.346311 C184.06754,143.063642 182.81821,143.420975 181.359547,143.420975 C179.488885,143.420975 177.811555,142.908976 176.326226,141.884979 C174.84223,140.860981 173.823565,139.503651 173.2729,137.814322 C172.722235,136.12366 172.447569,132.999667 172.447569,128.441012 L172.447569,109.965058 L161.654263,109.965058 L161.654263,150.75829 L171.679571,150.75829 L171.679571,144.766305 C175.238229,149.375627 179.719551,151.679621 185.123537,151.679621 C187.504865,151.679621 189.680859,151.251622 191.652854,150.392957 C193.624849,149.535626 195.116846,148.440962 196.128843,147.108966 C197.139507,145.776969 197.843505,144.266306 198.240838,142.576977 C198.63817,140.886314 198.836836,138.46632 198.836836,135.316995 L198.836836,109.965058 L198.836836,109.965058 Z M205.443486,109.965058 L205.443486,118.377037 L220.731448,135.93166 C223.240775,138.799653 225.096771,140.835648 226.302101,142.038312 C225.046104,141.962312 223.394108,141.910312 221.346113,141.884979 L206.942149,141.808979 L206.942149,150.75829 L240.666065,150.75829 L240.666065,143.114309 L225.072771,125.138354 L219.579451,119.183702 L225.147437,119.453035 L241.858062,119.453035 L241.858062,109.965058 L205.443486,109.965058 L205.443486,109.965058 Z M249.116711,109.965058 L249.116711,150.75829 L259.91135,150.75829 L259.91135,109.965058 L249.116711,109.965058 Z M249.116711,156.290276 L249.116711,166.275584 L259.91135,166.275584 L259.91135,156.290276 L249.116711,156.290276 L249.116711,156.290276 Z M295.209929,133.856999 C295.133929,136.980991 294.325931,139.355652 292.789935,140.982314 C291.253939,142.608977 289.38461,143.420975 287.183282,143.420975 C284.825955,143.420975 282.880626,142.563644 281.34463,140.847648 C279.808634,139.131652 279.051302,136.802325 279.077969,133.856999 L295.209929,133.856999 Z M294.595264,122.947693 L305.351237,121.142364 C303.968573,117.199707 301.784579,114.197048 298.80192,112.13572 C295.817927,110.074391 292.085936,109.043727 287.604614,109.043727 C280.511299,109.043727 275.260645,111.361055 271.856654,115.99571 C269.167327,119.709034 267.82333,124.394356 267.82333,130.054342 C267.82333,136.814325 269.588659,142.108978 273.123317,145.938302 C276.656642,149.764959 281.125964,151.679621 286.52995,151.679621 C292.597935,151.679621 297.385923,149.675626 300.895248,145.668969 C304.403239,141.660979 306.081901,135.520995 305.927235,127.250349 L278.885969,127.250349 C278.961969,124.049023 279.832634,121.559696 281.497963,119.779701 C283.161959,117.999705 285.23662,117.109041 287.719281,117.109041 C289.409943,117.109041 290.831273,117.570373 291.98327,118.493037 C293.1366,119.414368 294.005932,120.899698 294.595264,122.947693 L294.595264,122.947693 Z M325.056521,109.965058 L314.261881,109.965058 L314.261881,150.75829 L324.288523,150.75829 L324.288523,144.958304 C326.003185,147.696964 327.545848,149.502293 328.917844,150.374291 C330.287174,151.244955 331.841837,151.679621 333.584499,151.679621 C336.041827,151.679621 338.411154,151.000956 340.689815,149.644959 L337.34849,140.232983 C335.529828,141.411646 333.839165,142.000978 332.277836,142.000978 C330.76584,142.000978 329.485843,141.583646 328.436512,140.751648 C327.385848,139.91965 326.560517,138.415654 325.959185,136.238326 C325.357853,134.060998 325.056521,129.503676 325.056521,122.563694 L325.056521,109.965058 L325.056521,109.965058 Z M364.04309,150.75829 L364.04309,142.154311 L356.668442,142.154311 L356.668442,125.714352 C356.668442,122.385027 356.739108,120.445032 356.879108,119.894367 C357.020441,119.343702 357.34044,118.889036 357.840439,118.53037 C358.339104,118.173038 358.947103,117.993038 359.664434,117.993038 C360.663098,117.993038 362.109761,118.339704 364.005757,119.030369 L364.927088,110.657057 C362.417761,109.581059 359.575101,109.043727 356.399109,109.043727 C354.453781,109.043727 352.699118,109.370393 351.137789,110.022392 C349.575126,110.675723 348.428462,111.521055 347.700464,112.557052 C346.969799,113.595716 346.464467,114.997046 346.183135,116.763708 C345.951135,118.018372 345.836469,120.554365 345.836469,124.369022 L345.836469,142.154311 L340.880481,142.154311 L340.880481,150.75829 L345.836469,150.75829 L345.836469,158.863603 L356.668442,165.162254 L356.668442,150.75829 L364.04309,150.75829 L364.04309,150.75829 Z M404.605655,109.965058 L388.165696,150.75829 L399.497668,150.75829 L407.180315,129.939675 L409.40831,122.986359 L410.522974,126.48235 C410.880306,127.634348 411.264305,128.786345 411.673637,129.939675 L419.433618,150.75829 L430.53359,150.75829 L414.324298,109.965058 L404.605655,109.965058 L404.605655,109.965058 Z M445.705552,130.361007 C445.705552,126.315684 446.66555,123.217025 448.588212,121.066364 C450.506874,118.915703 452.874868,117.839705 455.693527,117.839705 C458.50952,117.839705 460.870848,118.915703 462.780176,121.066364 C464.688172,123.217025 465.642836,126.341017 465.642836,130.438341 C465.642836,134.432997 464.688172,137.506323 462.780176,139.656984 C460.870848,141.808979 458.50952,142.883643 455.693527,142.883643 C452.874868,142.883643 450.506874,141.808979 448.588212,139.656984 C446.66555,137.506323 445.705552,134.407664 445.705552,130.361007 Z M434.644247,130.938339 C434.644247,134.52233 435.528245,137.992988 437.293573,141.347647 C439.061569,144.702305 441.564229,147.262299 444.804221,149.030294 C448.041547,150.796956 451.660204,151.679621 455.654861,151.679621 C461.825512,151.679621 466.882833,149.675626 470.826823,145.668969 C474.76948,141.660979 476.742808,136.596992 476.742808,130.477007 C476.742808,124.305023 474.752146,119.190369 470.76949,115.131712 C466.786833,111.073056 461.774846,109.043727 455.730861,109.043727 C451.992203,109.043727 448.425546,109.889059 445.033554,111.578388 C441.641563,113.26905 439.061569,115.746377 437.293573,119.011702 C435.528245,122.275694 434.644247,126.251684 434.644247,130.938339 L434.644247,130.938339 Z M522.298694,109.965058 L511.504055,109.965058 L511.504055,130.785006 C511.504055,135.188995 511.273388,138.038322 510.812056,139.330318 C510.352057,140.623648 509.602726,141.628979 508.565395,142.346311 C507.529398,143.063642 506.280068,143.420975 504.820071,143.420975 C502.950743,143.420975 501.273413,142.908976 499.788084,141.884979 C498.304088,140.860981 497.285423,139.503651 496.734758,137.814322 C496.184093,136.12366 495.909427,132.999667 495.909427,128.441012 L495.909427,109.965058 L485.116121,109.965058 L485.116121,150.75829 L495.141429,150.75829 L495.141429,144.766305 C498.700087,149.375627 503.181409,151.679621 508.585395,151.679621 C510.966723,151.679621 513.142717,151.251622 515.114712,150.392957 C517.086707,149.535626 518.578704,148.440962 519.589368,147.108966 C520.600032,145.776969 521.305363,144.266306 521.701362,142.576977 C522.098695,140.886314 522.298694,138.46632 522.298694,135.316995 L522.298694,109.965058 L522.298694,109.965058 Z M563.703924,131.245005 C563.703924,126.891683 564.306589,123.742357 565.510586,121.795696 C567.251915,118.978369 569.683909,117.570373 572.809235,117.570373 C575.291895,117.570373 577.405223,118.62637 579.146552,120.739698 C580.887881,122.851693 581.758546,126.007685 581.758546,130.207674 C581.758546,134.894329 580.913214,138.267654 579.222552,140.330316 C577.533223,142.390311 575.367895,143.420975 572.731901,143.420975 C570.170575,143.420975 568.02658,142.403644 566.298584,140.367649 C564.569255,138.332987 563.703924,135.290328 563.703924,131.245005 L563.703924,131.245005 Z M592.514519,109.965058 L582.487877,109.965058 L582.487877,115.957043 C580.822548,113.626383 578.858553,111.89172 576.591892,110.753056 C574.325231,109.614393 572.039903,109.043727 569.735909,109.043727 C565.049254,109.043727 561.034597,110.931723 557.694606,114.709047 C554.351947,118.48637 552.681285,123.754357 552.681285,130.515674 C552.681285,137.42899 554.307948,142.684977 557.558606,146.283634 C560.810598,149.880959 564.921254,151.679621 569.889242,151.679621 C574.446564,151.679621 578.390554,149.784959 581.719879,145.995635 L581.719879,166.275584 L592.514519,166.275584 L592.514519,109.965058 L592.514519,109.965058 Z M627.391765,133.856999 C627.314432,136.980991 626.507767,139.355652 624.971771,140.982314 C623.434441,142.608977 621.566446,143.420975 619.365118,143.420975 C617.007791,143.420975 615.062462,142.563644 613.526466,140.847648 C611.989137,139.131652 611.233139,136.802325 611.258472,133.856999 L627.391765,133.856999 Z M626.7771,122.947693 L637.533073,121.142364 C636.149076,117.199707 633.966415,114.197048 630.982423,112.13572 C627.999763,110.074391 624.266439,109.043727 619.786451,109.043727 C612.693135,109.043727 607.442481,111.361055 604.037157,115.99571 C601.349163,119.709034 600.005167,124.394356 600.005167,130.054342 C600.005167,136.814325 601.770496,142.108978 605.305153,145.938302 C608.838478,149.764959 613.3078,151.679621 618.710453,151.679621 C624.779771,151.679621 629.567759,149.675626 633.077084,145.668969 C636.585075,141.660979 638.262404,135.520995 638.109071,127.250349 L611.067806,127.250349 C611.143805,124.049023 612.01447,121.559696 613.679799,119.779701 C615.343795,117.999705 617.418456,117.109041 619.901117,117.109041 C621.590446,117.109041 623.013109,117.570373 624.165106,118.493037 C625.317103,119.414368 626.187768,120.899698 626.7771,122.947693 L626.7771,122.947693 Z M657.238357,109.965058 L646.443717,109.965058 L646.443717,150.75829 L656.470359,150.75829 L656.470359,144.958304 C658.185021,147.696964 659.727684,149.502293 661.098347,150.374291 C662.46901,151.244955 664.023673,151.679621 665.765002,151.679621 C668.223663,151.679621 670.591657,151.000956 672.870318,149.644959 L669.530326,140.232983 C667.710331,141.411646 666.021002,142.000978 664.459672,142.000978 C662.947676,142.000978 661.667679,141.583646 660.618348,140.751648 C659.567684,139.91965 658.742353,138.415654 658.141021,136.238326 C657.538356,134.060998 657.238357,129.503676 657.238357,122.563694 L657.238357,109.965058 L657.238357,109.965058 Z M0.09599976,15.5652944 L0.09599976,71.8771536 L41.8492287,71.8771536 L41.8492287,62.3505108 L11.466638,62.3505108 L11.466638,49.866542 L39.737234,49.866542 L39.737234,40.379899 L11.466638,40.379899 L11.466638,25.054604 L42.9238927,25.054604 L42.9238927,15.5652944 L0.09599976,15.5652944 L0.09599976,15.5652944 Z M79.3384683,15.5652944 L79.3384683,21.6732791 C77.8531387,19.4972846 75.9011436,17.7812889 73.4798163,16.5266253 C71.0611557,15.2719618 68.5064954,14.6439634 65.8171688,14.6439634 C63.0771756,14.6439634 60.6185151,15.2466285 58.4425206,16.4492922 C56.2651927,17.6532892 54.6918633,19.3426183 53.717199,21.5199462 C52.7452015,23.6959408 52.258536,26.7052666 52.258536,30.5465903 L52.258536,56.3585258 L63.0518424,56.3585258 L63.0518424,37.6145726 C63.0518424,31.878587 63.2505085,28.3625958 63.6465075,27.0692657 C64.0438399,25.7772689 64.7665047,24.7519381 65.8171688,23.9972733 C66.8678328,23.2412752 68.1998295,22.8639428 69.8118255,22.8639428 C71.6558209,22.8639428 73.3091501,23.3692749 74.7664797,24.3812724 C76.2278094,25.3932699 77.2251403,26.6479334 77.7638056,28.145263 C78.3011376,29.6439259 78.5704702,33.3119167 78.5704702,39.1505688 L78.5704702,56.3585258 L89.3637766,56.3585258 L89.3637766,15.5652944 L79.3384683,15.5652944 L79.3384683,15.5652944 Z M110.874389,15.5652944 L100.081083,15.5652944 L100.081083,56.3585258 L110.106391,56.3585258 L110.106391,50.5585403 C111.821054,53.2985334 113.36505,55.1038622 114.735713,55.9745267 C116.105043,56.8451912 117.659706,57.2811901 119.402368,57.2811901 C121.861029,57.2811901 124.229023,56.6011918 126.507684,55.2451952 L123.166359,45.8345521 C121.347697,47.0118825 119.657034,47.6012143 118.095705,47.6012143 C116.585042,47.6012143 115.305045,47.183882 114.255714,46.3518841 C113.203717,45.5198862 112.378386,44.01589 111.777054,41.8385621 C111.175722,39.6625675 110.874389,35.1039122 110.874389,28.1652629 L110.874389,15.5652944 L110.874389,15.5652944 Z M139.720984,35.9625768 C139.720984,31.9159202 140.680982,28.8185946 142.60231,26.6679333 C144.522305,24.5159387 146.890299,23.4412747 149.707626,23.4412747 C152.524952,23.4412747 154.886279,24.5159387 156.795608,26.6679333 C158.70227,28.8185946 159.656934,31.9425868 159.656934,36.0385766 C159.656934,40.0332333 158.70227,43.1065589 156.795608,45.2572202 C154.886279,47.4092148 152.524952,48.4838788 149.707626,48.4838788 C146.890299,48.4838788 144.522305,47.4092148 142.60231,45.2572202 C140.680982,43.1065589 139.720984,40.0079 139.720984,35.9625768 Z M128.658345,36.5385753 C128.658345,40.1225664 129.542343,43.5932244 131.309005,46.9478826 C133.077001,50.3025409 135.579661,52.8638678 138.81832,54.6305301 C142.056978,56.3971923 145.675636,57.2811901 149.670292,57.2811901 C155.840944,57.2811901 160.898264,55.2771951 164.842255,51.2692052 C168.784911,47.2612152 170.756906,42.1972278 170.756906,36.0772431 C170.756906,29.9052586 168.766245,24.7906047 164.784921,20.7319482 C160.802265,16.6732917 155.790277,14.6439634 149.746292,14.6439634 C146.007635,14.6439634 142.440977,15.4892946 139.048986,17.1786237 C135.655661,18.8692862 133.077001,21.3466133 131.309005,24.6119385 C129.542343,27.8772636 128.658345,31.8519204 128.658345,36.5385753 L128.658345,36.5385753 Z M189.580859,36.6532417 C189.580859,32.0692532 190.487524,28.682595 192.307519,26.4946004 C194.124848,24.3039392 196.340842,23.2106086 198.952836,23.2106086 C201.462163,23.2106086 203.547491,24.2146061 205.21282,26.2252678 C206.876816,28.2345961 207.710147,31.5319212 207.710147,36.1159097 C207.710147,40.391899 206.851483,43.5678911 205.13682,45.6425526 C203.420825,47.7158807 201.295497,48.7532114 198.759503,48.7532114 C196.122176,48.7532114 193.932848,47.7345473 192.192853,45.6998857 C190.450191,43.6638908 189.580859,40.6478984 189.580859,36.6532417 L189.580859,36.6532417 Z M178.900886,56.3585258 L188.966194,56.3585258 L188.966194,50.3665408 C190.270191,52.4145356 192.038187,54.0798648 194.264848,55.3598616 C196.494175,56.6398584 198.964836,57.2811901 201.679496,57.2811901 C206.416817,57.2811901 210.436807,55.4238614 213.740799,51.7105374 C217.043457,47.9972133 218.695453,42.8252263 218.695453,36.1932429 C218.695453,29.3812599 217.031457,24.0866065 213.702132,20.3092826 C210.372807,16.5319587 206.339484,14.6439634 201.602163,14.6439634 C199.348835,14.6439634 197.307507,15.0932956 195.476845,15.9892934 C193.644849,16.8852911 191.716854,18.4212873 189.695526,20.5986152 L189.695526,0.047866547 L178.900886,0.047866547 L178.900886,56.3585258 L178.900886,56.3585258 Z M247.196715,63.5798411 L247.196715,72.8371512 L256.491359,72.8371512 L256.491359,63.5798411 L247.196715,63.5798411 Z M249.770042,35.1559121 C248.387379,34.6945799 246.198051,34.1439146 243.200725,33.5052496 C240.204733,32.8639178 238.247404,32.2359194 237.32474,31.6212543 C235.916744,30.6225901 235.211412,29.3559266 235.211412,27.8199304 C235.211412,26.3079342 235.774077,25.0026042 236.902074,23.9012736 C238.028738,22.799943 239.462068,22.2492777 241.203397,22.2492777 C243.148725,22.2492777 245.007387,22.8906094 246.772716,24.1706062 C248.080713,25.1426038 248.936711,26.3346008 249.347377,27.7425973 C249.628709,28.6652617 249.770042,30.4185906 249.770042,33.0052508 L249.770042,35.1559121 Z M230.679423,63.5798411 L230.679423,72.8371512 L239.936733,72.8371512 L239.936733,63.5798411 L230.679423,63.5798411 Z M235.327412,43.9132236 L225.532769,45.6798858 C226.632767,49.6238759 228.528762,52.5425353 231.216755,54.4385306 C233.906082,56.3331925 237.900739,57.2811901 243.200725,57.2811901 C248.01538,57.2811901 251.599371,56.7105249 253.956698,55.5705277 C256.311359,54.4318639 257.971355,52.9838675 258.930019,51.2305386 C259.89135,49.4772096 260.371349,46.2558844 260.371349,41.5705627 L260.255349,28.9719276 C260.255349,25.3866032 260.428682,22.7426098 260.774015,21.0399474 C261.120681,19.337285 261.766012,17.5119562 262.71401,15.5652944 L252.03537,15.5652944 C251.754037,16.282626 251.408705,17.34529 250.999372,18.7546198 C250.819373,19.3946182 250.692707,19.8172838 250.61404,20.0212833 C248.770045,18.2279544 246.799383,16.8852911 244.700722,15.9892934 C242.599393,15.0932956 240.359399,14.6439634 237.978072,14.6439634 C233.776749,14.6439634 230.468757,15.7826272 228.04743,18.0626215 C225.628769,20.3412825 224.419439,23.2226086 224.419439,26.7052666 C224.419439,29.0092608 224.968771,31.0639223 226.070101,32.8705845 C227.170099,34.67458 228.712762,36.0585765 230.699423,37.0185741 C232.683418,37.9785717 235.543411,38.8172363 239.283402,39.5345678 C244.327389,40.4812321 247.82338,41.3652299 249.770042,42.1852279 L249.770042,43.2598919 C249.770042,45.3345533 249.25671,46.8132163 248.234046,47.6972141 C247.208715,48.5798785 245.275387,49.0225441 242.432727,49.0225441 C240.512732,49.0225441 239.015402,48.6438784 237.939405,47.8892136 C236.864741,47.1332155 235.992743,45.8078855 235.327412,43.9132236 L235.327412,43.9132236 Z M271.009989,15.5652944 L271.009989,56.3585258 L281.804629,56.3585258 L281.804629,15.5652944 L271.009989,15.5652944 Z M271.009989,61.8905119 L271.009989,71.8771536 L281.804629,71.8771536 L281.804629,61.8905119 L271.009989,61.8905119 L271.009989,61.8905119 Z M289.064611,27.2052653 L299.896584,28.8559279 C300.357916,26.7559331 301.29258,25.1626038 302.700577,24.0732732 C304.108573,22.9852759 306.080568,22.4426106 308.616562,22.4426106 C311.407221,22.4426106 313.507216,22.953276 314.916546,23.9786067 C315.86321,24.6946049 316.336542,25.6559359 316.336542,26.8585995 C316.336542,27.6772641 316.080543,28.3572624 315.568544,28.8945944 C315.031212,29.4065931 313.825882,29.8812586 311.957887,30.3159242 C303.251242,32.2359194 297.732589,33.9905817 295.403261,35.5785777 C292.176603,37.7799056 290.56194,40.8398979 290.56194,44.7585548 C290.56194,48.2918793 291.957937,51.2625385 294.74993,53.6705325 C297.539256,56.0771931 301.867245,57.2811901 307.732564,57.2811901 C313.313883,57.2811901 317.463206,56.3705257 320.177866,54.5531969 C322.891193,52.7345348 324.760521,50.0465415 325.785852,46.4865504 L315.605878,44.6052218 C315.171212,46.1918845 314.345881,47.4092148 313.129884,48.254546 C311.912554,49.0985439 310.177891,49.5212095 307.92323,49.5212095 C305.083237,49.5212095 303.045909,49.1238772 301.816579,48.3305458 C300.996581,47.7665472 300.588582,47.0372157 300.588582,46.141218 C300.588582,45.3732199 300.945914,44.7198882 301.663246,44.1825562 C302.636577,43.4652247 305.996568,42.4532272 311.747221,41.1478971 C317.495206,39.8412337 321.50853,38.2412377 323.788524,36.3465758 C326.040518,34.4265806 327.168515,31.749254 327.168515,28.3185959 C327.168515,24.5799385 325.605853,21.3666132 322.48186,18.6772866 C319.357868,15.9892934 314.736546,14.6439634 308.616562,14.6439634 C303.059242,14.6439634 298.660587,15.7706272 295.421928,18.0239549 C292.181936,20.278616 290.063275,23.3386083 289.064611,27.2052653 L289.064611,27.2052653 Z M372.18707,44.2972226 L361.545763,42.3772274 C361.187097,44.5025554 360.373766,46.1025514 359.107102,47.1785487 C357.839105,48.254546 356.193776,48.791878 354.171115,48.791878 C351.481788,48.791878 349.337793,47.8638803 347.737797,46.0065516 C346.136468,44.149223 345.33647,41.0452307 345.33647,36.6919083 C345.33647,31.8519204 346.148468,28.4345956 347.775131,26.4372672 C349.401793,24.4399389 351.584454,23.4412747 354.324448,23.4412747 C356.372442,23.4412747 358.051105,24.0226066 359.356435,25.187937 C360.663098,26.3532674 361.585763,28.3572624 362.121761,31.199922 L372.723068,29.3945932 C371.623071,24.5279387 369.509743,20.8532812 366.385751,18.3706207 C363.260425,15.8866269 359.075102,14.6439634 353.824449,14.6439634 C347.85913,14.6439634 343.101809,16.5266253 339.555151,20.2906159 C336.008493,24.0559399 334.236498,29.2665935 334.236498,35.9239102 C334.236498,42.65856 336.01516,47.9012136 339.575151,51.6532042 C343.133809,55.4038615 347.948463,57.2811901 354.017782,57.2811901 C358.984436,57.2811901 362.935093,56.2105261 365.867085,54.0731981 C368.799078,51.9345368 370.905739,48.6758783 372.18707,44.2972226 L372.18707,44.2972226 Z M391.123022,71.8771536 L391.123022,51.1732054 C394.60568,55.2451952 398.767003,57.2811901 403.606991,57.2811901 C406.089651,57.2811901 408.330979,56.8198579 410.328308,55.8971936 C412.325636,54.9758626 413.830965,53.7971988 414.842963,52.3638691 C415.853627,50.929206 416.544292,49.34121 416.917624,47.6012143 C417.28829,45.8598853 417.474956,43.1572254 417.474956,39.4959013 L417.474956,15.5652944 L406.680317,15.5652944 L406.680317,37.1145739 C406.680317,41.3905632 406.474984,44.1052231 406.065651,45.2572202 C405.654986,46.4105506 404.932321,47.325215 403.89499,48.0052133 C402.858993,48.682545 401.557663,49.0225441 399.996333,49.0225441 C398.203004,49.0225441 396.603008,48.5865452 395.196345,47.7158807 C393.787016,46.8452162 392.755018,45.5332195 392.10302,43.7798905 C391.449688,42.0252283 391.123022,39.4319014 391.123022,36.0012433 L391.123022,15.5652944 L380.329716,15.5652944 L380.329716,71.8771536 L391.123022,71.8771536 L391.123022,71.8771536 Z M452.658868,39.4572347 C452.582869,42.5812269 451.774871,44.9558876 450.238874,46.5825502 C448.701545,48.2092128 446.83355,49.0225441 444.632222,49.0225441 C442.274894,49.0225441 440.329566,48.1638796 438.79357,46.4492172 C437.25624,44.7318882 436.500242,42.4025607 436.526909,39.4572347 L452.658868,39.4572347 Z M452.044203,28.549262 L462.800176,26.7439331 C461.417513,22.799943 459.233519,19.7972838 456.250859,17.7359557 C453.266867,15.6746275 449.533543,14.6439634 445.053554,14.6439634 C437.960238,14.6439634 432.709585,16.9612909 429.305593,21.5972793 C426.616267,25.3092701 425.27227,29.995925 425.27227,35.6545775 C425.27227,42.415894 427.037599,47.7092141 430.572257,51.5385378 C434.105581,55.3665283 438.574904,57.2811901 443.977557,57.2811901 C450.046875,57.2811901 454.834863,55.2771951 458.344187,51.2692052 C461.852179,47.2612152 463.530841,41.1212305 463.376175,32.8505845 L436.334909,32.8505845 C436.410909,29.6505925 437.281573,27.1599321 438.946903,25.3799366 C440.610898,23.599941 442.68556,22.7106099 445.16822,22.7106099 C446.858883,22.7106099 448.280213,23.1719421 449.43221,24.0932731 C450.58554,25.0146041 451.454871,26.5012671 452.044203,28.549262 L452.044203,28.549262 Z" id="Shape"></path>
                    <path d="M509.277393,15.5652944 L498.482754,15.5652944 L498.482754,36.3852424 C498.482754,40.7892314 498.253421,43.6385576 497.792089,44.9318877 C497.330757,46.2238844 496.582759,47.2292153 495.544094,47.9465468 C494.508097,48.6638783 493.258767,49.0225441 491.800104,49.0225441 C489.929442,49.0225441 488.253446,48.5092121 486.766783,47.4852146 C485.282787,46.4612172 484.264123,45.1038872 483.713457,43.4145581 C483.162792,41.7238957 482.888126,38.5999035 482.888126,34.0425816 L482.888126,15.5652944 L472.09482,15.5652944 L472.09482,56.3585258 L482.120128,56.3585258 L482.120128,50.3665407 C485.678786,54.9758626 490.160108,57.2811901 495.564094,57.2811901 C497.945422,57.2811901 500.121416,56.8518579 502.093411,55.9945267 C504.065407,55.1358622 505.557403,54.0411982 506.5694,52.7092016 C507.580064,51.3772049 508.284063,49.866542 508.681395,48.1772129 C509.078727,46.4865504 509.277393,44.0665565 509.277393,40.917231 L509.277393,15.5652944" id="B"></path>
                    <path d="M542.079978,71.8771536 L553.449283,71.8771536 L553.449283,41.3785632 C553.449283,36.5385753 553.589283,33.4012498 553.871949,31.9679201 C554.358614,29.6639258 555.517278,27.8132638 557.349273,26.4172673 C559.179935,25.0212708 561.682596,24.3239392 564.858588,24.3239392 C568.085246,24.3239392 570.51724,24.9826042 572.155903,26.3012676 C573.794566,27.6199309 574.78123,29.2399269 575.113229,31.1612554 C575.446561,33.0812506 575.613228,36.2692427 575.613228,40.7252315 L575.613228,71.8771536 L586.982533,71.8771536 L586.982533,42.2998943 C586.982533,35.5399112 586.675867,30.7639231 586.061202,27.9732634 C585.446536,25.1812704 584.313206,22.8266096 582.66121,20.9052811 C581.010547,18.9852859 578.80122,17.4532897 576.03456,16.3146259 C573.269233,15.1759621 569.659909,14.6066302 565.20392,14.6066302 C559.8266,14.6066302 555.747944,15.2279619 552.970618,16.4679588 C550.191958,17.7106224 547.995963,19.3239517 546.381301,21.3079467 C544.769305,23.2919418 543.705307,25.3732699 543.194642,27.5505978 C542.450644,30.7772564 542.079978,35.5399112 542.079978,41.8385621 L542.079978,71.8771536" id="Path"></path>
                    <g id="B-link" transform="translate(598.717170, 15.466628)">
                        <path d="M37.2785735,0.09866642 L26.4839338,0.09866642 L26.4839338,20.9186144 C26.4839338,25.3226034 26.254601,28.1719296 25.7932688,29.4652597 C25.3319367,30.7572564 24.5839385,31.7625873 23.5452745,32.4799188 C22.5092771,33.1972503 21.2599468,33.5559161 19.8012838,33.5559161 C17.9306218,33.5559161 16.254626,33.0425841 14.7679631,32.0185866 C13.2839668,30.9945892 12.2653027,29.6372592 11.7146374,27.9479301 C11.1639721,26.2572677 10.8893061,23.1332755 10.8893061,18.5759536 L10.8893061,0.09866642 L0.09599976,0.09866642 L0.09599976,40.8918978 L10.121308,40.8918978 L10.121308,34.8999127 C13.6799658,39.5092346 18.1612879,41.8145621 23.5652744,41.8145621 C25.9466018,41.8145621 28.1225964,41.3852299 30.0945914,40.5278987 C32.0665865,39.6692342 33.5585828,38.5745702 34.5705802,37.2425736 C35.5812444,35.9105769 36.2852426,34.399914 36.682575,32.7105849 C37.0799073,31.0199224 37.2785735,28.5999285 37.2785735,25.450603 L37.2785735,0.09866642" id="B"></path>
                    </g>
                    <path d="M646.942383,15.5652944 L646.942383,56.3585258 L657.737022,56.3585258 L657.737022,15.5652944 L646.942383,15.5652944 Z M646.942383,61.8905119 L646.942383,71.8771536 L657.737022,71.8771536 L657.737022,61.8905119 L646.942383,61.8905119 L646.942383,61.8905119 Z M677.364973,35.9625768 C677.364973,31.9159202 678.323638,28.8185946 680.246299,26.6679333 C682.164961,24.5159387 684.532955,23.4412747 687.351615,23.4412747 C690.167608,23.4412747 692.530269,24.5159387 694.438264,26.6679333 C696.346259,28.8185946 697.300923,31.9425868 697.300923,36.0385766 C697.300923,40.0332333 696.346259,43.1065589 694.438264,45.2572202 C692.530269,47.4092148 690.167608,48.4838788 687.351615,48.4838788 C684.532955,48.4838788 682.164961,47.4092148 680.246299,45.2572202 C678.323638,43.1065589 677.364973,40.0079 677.364973,35.9625768 Z M666.302334,36.5385753 C666.302334,40.1225664 667.186332,43.5932244 668.951661,46.9478826 C670.719657,50.3025409 673.222317,52.8638678 676.462309,54.6305301 C679.699634,56.3971923 683.318292,57.2811901 687.312948,57.2811901 C693.4836,57.2811901 698.54092,55.2771951 702.48491,51.2692052 C706.427567,47.2612152 708.400896,42.1972278 708.400896,36.0772431 C708.400896,29.9052586 706.410234,24.7906047 702.427577,20.7319482 C698.444921,16.6732917 693.432933,14.6439634 687.388948,14.6439634 C683.650291,14.6439634 680.084966,15.4892946 676.692975,17.1786237 C673.29965,18.8692862 670.719657,21.3466133 668.951661,24.6119385 C667.186332,27.8772636 666.302334,31.8519204 666.302334,36.5385753 L666.302334,36.5385753 Z M753.958115,15.5652944 L743.163475,15.5652944 L743.163475,36.3852424 C743.163475,40.7892314 742.932809,43.6385576 742.47281,44.9318877 C742.011478,46.2238844 741.262147,47.2292153 740.224816,47.9465468 C739.188819,48.6638783 737.939488,49.0225441 736.479492,49.0225441 C734.610163,49.0225441 732.932834,48.5092121 731.447505,47.4852146 C729.963508,46.4612172 728.944844,45.1038872 728.394179,43.4145581 C727.843514,41.7238957 727.568848,38.5999035 727.568848,34.0425816 L727.568848,15.5652944 L716.775541,15.5652944 L716.775541,56.3585258 L726.80085,56.3585258 L726.80085,50.3665408 C730.359507,54.9758626 734.84083,57.2811901 740.244816,57.2811901 C742.626143,57.2811901 744.802138,56.8518579 746.774133,55.9945267 C748.746128,55.1358622 750.238124,54.0411982 751.250122,52.7092016 C752.259453,51.3772049 752.964784,49.866542 753.362117,48.1772129 C753.758116,46.4865504 753.958115,44.0665565 753.958115,40.917231 L753.958115,15.5652944 L753.958115,15.5652944 Z" id="Shape"></path>
                </g>
                <g transform="translate(715.329598, 90.125276) scale(-1, 1) rotate(-180.000000) translate(-715.329598, -90.125276) translate(429.329598, 52.125276)" fill="#505256" font-family="ArialMT, Arial" font-size="51" font-weight="normal" id="NextGenerationEU">
                    <text>
                        <tspan x="2.84217094e-13" y="46">NextGenerationEU</tspan>
                    </text>
                </g>
            </g>
        </g>
    </g>
</svg>